<mxfile host="app.diagrams.net" modified="2021-11-25T04:40:54.454Z" agent="5.0 (Windows NT 10.0; Win64; x64) AppleWebKit/537.36 (KHTML, like Gecko) Chrome/96.0.4664.45 Safari/537.36" etag="BrnxKpGxFyiKNJWpmGQs" version="15.8.6" type="github" pages="4">
  <diagram id="3oTao0KOtsLagbJLEsng" name="Flow Chart">
    <mxGraphModel dx="1422" dy="794" grid="0" gridSize="10" guides="1" tooltips="1" connect="1" arrows="1" fold="1" page="1" pageScale="1" pageWidth="1200" pageHeight="1600" math="0" shadow="0">
      <root>
        <mxCell id="0" />
        <mxCell id="1" parent="0" />
        <mxCell id="OlxqxKOcW24KjexsDJCm-14" value="" style="edgeStyle=orthogonalEdgeStyle;rounded=0;orthogonalLoop=1;jettySize=auto;html=1;" parent="1" source="OlxqxKOcW24KjexsDJCm-1" target="OlxqxKOcW24KjexsDJCm-5" edge="1">
          <mxGeometry relative="1" as="geometry" />
        </mxCell>
        <mxCell id="OlxqxKOcW24KjexsDJCm-24" style="edgeStyle=orthogonalEdgeStyle;rounded=0;orthogonalLoop=1;jettySize=auto;html=1;entryX=0.5;entryY=1;entryDx=0;entryDy=0;" parent="1" source="OlxqxKOcW24KjexsDJCm-1" target="OlxqxKOcW24KjexsDJCm-6" edge="1">
          <mxGeometry relative="1" as="geometry" />
        </mxCell>
        <mxCell id="OlxqxKOcW24KjexsDJCm-1" value="Predict" style="whiteSpace=wrap;html=1;aspect=fixed;fillColor=#f8cecc;strokeColor=#b85450;" parent="1" vertex="1">
          <mxGeometry x="722" y="210" width="80" height="80" as="geometry" />
        </mxCell>
        <mxCell id="OlxqxKOcW24KjexsDJCm-13" value="" style="edgeStyle=orthogonalEdgeStyle;rounded=0;orthogonalLoop=1;jettySize=auto;html=1;" parent="1" source="OlxqxKOcW24KjexsDJCm-2" target="OlxqxKOcW24KjexsDJCm-1" edge="1">
          <mxGeometry relative="1" as="geometry" />
        </mxCell>
        <mxCell id="OlxqxKOcW24KjexsDJCm-2" value="Model" style="whiteSpace=wrap;html=1;aspect=fixed;fillColor=#f8cecc;strokeColor=#b85450;" parent="1" vertex="1">
          <mxGeometry x="550" y="210" width="80" height="80" as="geometry" />
        </mxCell>
        <mxCell id="OlxqxKOcW24KjexsDJCm-12" value="" style="edgeStyle=orthogonalEdgeStyle;rounded=0;orthogonalLoop=1;jettySize=auto;html=1;" parent="1" source="OlxqxKOcW24KjexsDJCm-3" target="OlxqxKOcW24KjexsDJCm-2" edge="1">
          <mxGeometry relative="1" as="geometry" />
        </mxCell>
        <mxCell id="OlxqxKOcW24KjexsDJCm-3" value="Process" style="whiteSpace=wrap;html=1;aspect=fixed;fillColor=#f8cecc;strokeColor=#b85450;" parent="1" vertex="1">
          <mxGeometry x="400" y="210" width="80" height="80" as="geometry" />
        </mxCell>
        <mxCell id="OlxqxKOcW24KjexsDJCm-11" value="" style="edgeStyle=orthogonalEdgeStyle;rounded=0;orthogonalLoop=1;jettySize=auto;html=1;" parent="1" source="OlxqxKOcW24KjexsDJCm-4" target="OlxqxKOcW24KjexsDJCm-3" edge="1">
          <mxGeometry relative="1" as="geometry" />
        </mxCell>
        <mxCell id="OlxqxKOcW24KjexsDJCm-4" value="Data" style="whiteSpace=wrap;html=1;aspect=fixed;fillColor=#f8cecc;strokeColor=#b85450;" parent="1" vertex="1">
          <mxGeometry x="242" y="210" width="80" height="80" as="geometry" />
        </mxCell>
        <mxCell id="OlxqxKOcW24KjexsDJCm-5" value="What use ?" style="whiteSpace=wrap;html=1;aspect=fixed;fillColor=#f8cecc;strokeColor=#b85450;" parent="1" vertex="1">
          <mxGeometry x="868" y="210" width="80" height="80" as="geometry" />
        </mxCell>
        <mxCell id="OlxqxKOcW24KjexsDJCm-25" style="edgeStyle=orthogonalEdgeStyle;rounded=0;orthogonalLoop=1;jettySize=auto;html=1;" parent="1" source="OlxqxKOcW24KjexsDJCm-6" target="OlxqxKOcW24KjexsDJCm-7" edge="1">
          <mxGeometry relative="1" as="geometry" />
        </mxCell>
        <mxCell id="OlxqxKOcW24KjexsDJCm-6" value="Back Testing" style="rounded=0;whiteSpace=wrap;html=1;fillColor=#fff2cc;strokeColor=#d6b656;" parent="1" vertex="1">
          <mxGeometry x="651" y="77" width="120" height="60" as="geometry" />
        </mxCell>
        <mxCell id="OlxqxKOcW24KjexsDJCm-7" value="Forward Testing" style="rounded=0;whiteSpace=wrap;html=1;fillColor=#fff2cc;strokeColor=#d6b656;" parent="1" vertex="1">
          <mxGeometry x="364" y="77" width="120" height="60" as="geometry" />
        </mxCell>
        <mxCell id="OlxqxKOcW24KjexsDJCm-16" style="edgeStyle=orthogonalEdgeStyle;rounded=0;orthogonalLoop=1;jettySize=auto;html=1;entryX=0.5;entryY=1;entryDx=0;entryDy=0;" parent="1" source="OlxqxKOcW24KjexsDJCm-8" target="OlxqxKOcW24KjexsDJCm-5" edge="1">
          <mxGeometry relative="1" as="geometry" />
        </mxCell>
        <mxCell id="OlxqxKOcW24KjexsDJCm-8" value="Risk Allocation" style="rounded=1;whiteSpace=wrap;html=1;fillColor=#d5e8d4;strokeColor=#82b366;" parent="1" vertex="1">
          <mxGeometry x="848" y="390" width="120" height="60" as="geometry" />
        </mxCell>
        <mxCell id="OlxqxKOcW24KjexsDJCm-15" style="edgeStyle=orthogonalEdgeStyle;rounded=0;orthogonalLoop=1;jettySize=auto;html=1;entryX=0.5;entryY=1;entryDx=0;entryDy=0;" parent="1" source="OlxqxKOcW24KjexsDJCm-9" target="OlxqxKOcW24KjexsDJCm-5" edge="1">
          <mxGeometry relative="1" as="geometry">
            <Array as="points">
              <mxPoint x="653" y="340" />
              <mxPoint x="908" y="340" />
            </Array>
          </mxGeometry>
        </mxCell>
        <mxCell id="OlxqxKOcW24KjexsDJCm-9" value="Signal Generation" style="rounded=1;whiteSpace=wrap;html=1;fillColor=#d5e8d4;strokeColor=#82b366;" parent="1" vertex="1">
          <mxGeometry x="593" y="379" width="120" height="60" as="geometry" />
        </mxCell>
        <mxCell id="OlxqxKOcW24KjexsDJCm-10" value="Excute" style="rounded=1;whiteSpace=wrap;html=1;fillColor=#d5e8d4;strokeColor=#82b366;" parent="1" vertex="1">
          <mxGeometry x="222" y="450" width="120" height="60" as="geometry" />
        </mxCell>
        <mxCell id="OlxqxKOcW24KjexsDJCm-18" value="" style="edgeStyle=orthogonalEdgeStyle;rounded=0;orthogonalLoop=1;jettySize=auto;html=1;" parent="1" source="OlxqxKOcW24KjexsDJCm-17" target="OlxqxKOcW24KjexsDJCm-10" edge="1">
          <mxGeometry relative="1" as="geometry" />
        </mxCell>
        <mxCell id="OlxqxKOcW24KjexsDJCm-19" value="" style="edgeStyle=orthogonalEdgeStyle;rounded=0;orthogonalLoop=1;jettySize=auto;html=1;" parent="1" source="OlxqxKOcW24KjexsDJCm-17" target="OlxqxKOcW24KjexsDJCm-4" edge="1">
          <mxGeometry relative="1" as="geometry" />
        </mxCell>
        <mxCell id="OlxqxKOcW24KjexsDJCm-17" value="CCXT" style="ellipse;whiteSpace=wrap;html=1;aspect=fixed;fillColor=#dae8fc;strokeColor=#6c8ebf;" parent="1" vertex="1">
          <mxGeometry x="242" y="327" width="80" height="80" as="geometry" />
        </mxCell>
      </root>
    </mxGraphModel>
  </diagram>
  <diagram id="oxzc52k58RNqa9LFM2uh" name="Model">
    <mxGraphModel dx="856" dy="512" grid="0" gridSize="10" guides="1" tooltips="1" connect="1" arrows="1" fold="1" page="1" pageScale="1" pageWidth="1200" pageHeight="1600" math="0" shadow="0">
      <root>
        <mxCell id="1FfNJoAa6d6vlOe_dKD6-0" />
        <mxCell id="1FfNJoAa6d6vlOe_dKD6-1" parent="1FfNJoAa6d6vlOe_dKD6-0" />
        <mxCell id="1FfNJoAa6d6vlOe_dKD6-5" value="Sequence + Time-Series Data" style="edgeStyle=orthogonalEdgeStyle;rounded=0;orthogonalLoop=1;jettySize=auto;html=1;entryX=0.5;entryY=0;entryDx=0;entryDy=0;" parent="1FfNJoAa6d6vlOe_dKD6-1" source="1FfNJoAa6d6vlOe_dKD6-2" target="1FfNJoAa6d6vlOe_dKD6-3" edge="1">
          <mxGeometry relative="1" as="geometry" />
        </mxCell>
        <mxCell id="1FfNJoAa6d6vlOe_dKD6-6" style="edgeStyle=orthogonalEdgeStyle;rounded=0;orthogonalLoop=1;jettySize=auto;html=1;entryX=0.5;entryY=0;entryDx=0;entryDy=0;" parent="1FfNJoAa6d6vlOe_dKD6-1" source="1FfNJoAa6d6vlOe_dKD6-2" target="1FfNJoAa6d6vlOe_dKD6-4" edge="1">
          <mxGeometry relative="1" as="geometry" />
        </mxCell>
        <mxCell id="1FfNJoAa6d6vlOe_dKD6-2" value="Deep Learning" style="whiteSpace=wrap;html=1;aspect=fixed;fillColor=#f8cecc;strokeColor=#b85450;" parent="1FfNJoAa6d6vlOe_dKD6-1" vertex="1">
          <mxGeometry x="364" y="375" width="80" height="80" as="geometry" />
        </mxCell>
        <mxCell id="1FfNJoAa6d6vlOe_dKD6-10" style="edgeStyle=orthogonalEdgeStyle;rounded=0;orthogonalLoop=1;jettySize=auto;html=1;" parent="1FfNJoAa6d6vlOe_dKD6-1" source="1FfNJoAa6d6vlOe_dKD6-3" target="1FfNJoAa6d6vlOe_dKD6-9" edge="1">
          <mxGeometry relative="1" as="geometry" />
        </mxCell>
        <mxCell id="1FfNJoAa6d6vlOe_dKD6-3" value="RNN" style="whiteSpace=wrap;html=1;aspect=fixed;fillColor=#f8cecc;strokeColor=#b85450;" parent="1FfNJoAa6d6vlOe_dKD6-1" vertex="1">
          <mxGeometry x="563" y="579" width="80" height="80" as="geometry" />
        </mxCell>
        <mxCell id="1FfNJoAa6d6vlOe_dKD6-4" value="CNN" style="whiteSpace=wrap;html=1;aspect=fixed;fillColor=#f8cecc;strokeColor=#b85450;" parent="1FfNJoAa6d6vlOe_dKD6-1" vertex="1">
          <mxGeometry x="227" y="590" width="80" height="80" as="geometry" />
        </mxCell>
        <mxCell id="1FfNJoAa6d6vlOe_dKD6-9" value="LSTM" style="rhombus;whiteSpace=wrap;html=1;fillColor=#f8cecc;strokeColor=#b85450;" parent="1FfNJoAa6d6vlOe_dKD6-1" vertex="1">
          <mxGeometry x="790" y="579" width="80" height="80" as="geometry" />
        </mxCell>
        <mxCell id="fHvPlOwDIWz_K6WTAOf8-1" style="edgeStyle=orthogonalEdgeStyle;rounded=0;orthogonalLoop=1;jettySize=auto;html=1;entryX=0.5;entryY=0;entryDx=0;entryDy=0;fontColor=#000000;" parent="1FfNJoAa6d6vlOe_dKD6-1" source="fHvPlOwDIWz_K6WTAOf8-0" target="1FfNJoAa6d6vlOe_dKD6-2" edge="1">
          <mxGeometry relative="1" as="geometry" />
        </mxCell>
        <mxCell id="fHvPlOwDIWz_K6WTAOf8-0" value="Keras" style="ellipse;whiteSpace=wrap;html=1;aspect=fixed;fillColor=#dae8fc;strokeColor=#6c8ebf;" parent="1FfNJoAa6d6vlOe_dKD6-1" vertex="1">
          <mxGeometry x="151" y="257" width="80" height="80" as="geometry" />
        </mxCell>
      </root>
    </mxGraphModel>
  </diagram>
  <diagram id="XTTbuLVKa4EHyb3O5ZZ2" name="Bot Trading Basic">
    <mxGraphModel dx="856" dy="512" grid="0" gridSize="10" guides="1" tooltips="1" connect="1" arrows="1" fold="1" page="1" pageScale="1" pageWidth="3300" pageHeight="4681" math="0" shadow="0">
      <root>
        <mxCell id="AfRb2iKJooxq0v11mABk-0" />
        <mxCell id="AfRb2iKJooxq0v11mABk-1" parent="AfRb2iKJooxq0v11mABk-0" />
        <mxCell id="AfRb2iKJooxq0v11mABk-18" value="Controller(main)" style="swimlane;fontStyle=0;childLayout=stackLayout;horizontal=1;startSize=26;fillColor=none;horizontalStack=0;resizeParent=1;resizeParentMax=0;resizeLast=0;collapsible=1;marginBottom=0;" vertex="1" collapsed="1" parent="AfRb2iKJooxq0v11mABk-1">
          <mxGeometry x="1422" y="138" width="87" height="26" as="geometry">
            <mxRectangle x="1422" y="138" width="179" height="104" as="alternateBounds" />
          </mxGeometry>
        </mxCell>
        <mxCell id="AfRb2iKJooxq0v11mABk-19" value="+ field: type" style="text;strokeColor=none;fillColor=none;align=left;verticalAlign=top;spacingLeft=4;spacingRight=4;overflow=hidden;rotatable=0;points=[[0,0.5],[1,0.5]];portConstraint=eastwest;" vertex="1" parent="AfRb2iKJooxq0v11mABk-18">
          <mxGeometry y="26" width="87" height="26" as="geometry" />
        </mxCell>
        <mxCell id="AfRb2iKJooxq0v11mABk-20" value="+ field: type" style="text;strokeColor=none;fillColor=none;align=left;verticalAlign=top;spacingLeft=4;spacingRight=4;overflow=hidden;rotatable=0;points=[[0,0.5],[1,0.5]];portConstraint=eastwest;" vertex="1" parent="AfRb2iKJooxq0v11mABk-18">
          <mxGeometry y="52" width="87" height="26" as="geometry" />
        </mxCell>
        <mxCell id="AfRb2iKJooxq0v11mABk-21" value="+ field: type" style="text;strokeColor=none;fillColor=none;align=left;verticalAlign=top;spacingLeft=4;spacingRight=4;overflow=hidden;rotatable=0;points=[[0,0.5],[1,0.5]];portConstraint=eastwest;" vertex="1" parent="AfRb2iKJooxq0v11mABk-18">
          <mxGeometry y="78" width="87" height="26" as="geometry" />
        </mxCell>
        <mxCell id="AfRb2iKJooxq0v11mABk-23" value="Model" style="swimlane;fontStyle=0;childLayout=stackLayout;horizontal=1;startSize=26;fillColor=none;horizontalStack=0;resizeParent=1;resizeParentMax=0;resizeLast=0;collapsible=1;marginBottom=0;" vertex="1" parent="AfRb2iKJooxq0v11mABk-1">
          <mxGeometry x="1543" y="377" width="179" height="104" as="geometry">
            <mxRectangle x="1543" y="377" width="87" height="26" as="alternateBounds" />
          </mxGeometry>
        </mxCell>
        <mxCell id="AfRb2iKJooxq0v11mABk-24" value="+ field: type" style="text;strokeColor=none;fillColor=none;align=left;verticalAlign=top;spacingLeft=4;spacingRight=4;overflow=hidden;rotatable=0;points=[[0,0.5],[1,0.5]];portConstraint=eastwest;" vertex="1" parent="AfRb2iKJooxq0v11mABk-23">
          <mxGeometry y="26" width="179" height="26" as="geometry" />
        </mxCell>
        <mxCell id="AfRb2iKJooxq0v11mABk-25" value="+ field: type" style="text;strokeColor=none;fillColor=none;align=left;verticalAlign=top;spacingLeft=4;spacingRight=4;overflow=hidden;rotatable=0;points=[[0,0.5],[1,0.5]];portConstraint=eastwest;" vertex="1" parent="AfRb2iKJooxq0v11mABk-23">
          <mxGeometry y="52" width="179" height="26" as="geometry" />
        </mxCell>
        <mxCell id="AfRb2iKJooxq0v11mABk-26" value="+ field: type" style="text;strokeColor=none;fillColor=none;align=left;verticalAlign=top;spacingLeft=4;spacingRight=4;overflow=hidden;rotatable=0;points=[[0,0.5],[1,0.5]];portConstraint=eastwest;" vertex="1" parent="AfRb2iKJooxq0v11mABk-23">
          <mxGeometry y="78" width="179" height="26" as="geometry" />
        </mxCell>
        <mxCell id="AfRb2iKJooxq0v11mABk-27" value="AutoTrader" style="swimlane;fontStyle=0;childLayout=stackLayout;horizontal=1;startSize=26;fillColor=none;horizontalStack=0;resizeParent=1;resizeParentMax=0;resizeLast=0;collapsible=1;marginBottom=0;" vertex="1" parent="AfRb2iKJooxq0v11mABk-1">
          <mxGeometry x="1289" y="377" width="179" height="104" as="geometry">
            <mxRectangle x="1289" y="377" width="87" height="26" as="alternateBounds" />
          </mxGeometry>
        </mxCell>
        <mxCell id="AfRb2iKJooxq0v11mABk-28" value="+ field: type" style="text;strokeColor=none;fillColor=none;align=left;verticalAlign=top;spacingLeft=4;spacingRight=4;overflow=hidden;rotatable=0;points=[[0,0.5],[1,0.5]];portConstraint=eastwest;" vertex="1" parent="AfRb2iKJooxq0v11mABk-27">
          <mxGeometry y="26" width="179" height="26" as="geometry" />
        </mxCell>
        <mxCell id="AfRb2iKJooxq0v11mABk-29" value="+ field: type" style="text;strokeColor=none;fillColor=none;align=left;verticalAlign=top;spacingLeft=4;spacingRight=4;overflow=hidden;rotatable=0;points=[[0,0.5],[1,0.5]];portConstraint=eastwest;" vertex="1" parent="AfRb2iKJooxq0v11mABk-27">
          <mxGeometry y="52" width="179" height="26" as="geometry" />
        </mxCell>
        <mxCell id="AfRb2iKJooxq0v11mABk-30" value="+ field: type" style="text;strokeColor=none;fillColor=none;align=left;verticalAlign=top;spacingLeft=4;spacingRight=4;overflow=hidden;rotatable=0;points=[[0,0.5],[1,0.5]];portConstraint=eastwest;" vertex="1" parent="AfRb2iKJooxq0v11mABk-27">
          <mxGeometry y="78" width="179" height="26" as="geometry" />
        </mxCell>
        <mxCell id="AfRb2iKJooxq0v11mABk-31" value="CoinbaseAPI" style="swimlane;fontStyle=0;childLayout=stackLayout;horizontal=1;startSize=26;fillColor=none;horizontalStack=0;resizeParent=1;resizeParentMax=0;resizeLast=0;collapsible=1;marginBottom=0;" vertex="1" parent="AfRb2iKJooxq0v11mABk-1">
          <mxGeometry x="1043" y="377" width="179" height="104" as="geometry">
            <mxRectangle x="1043" y="377" width="87" height="26" as="alternateBounds" />
          </mxGeometry>
        </mxCell>
        <mxCell id="AfRb2iKJooxq0v11mABk-32" value="+ field: type" style="text;strokeColor=none;fillColor=none;align=left;verticalAlign=top;spacingLeft=4;spacingRight=4;overflow=hidden;rotatable=0;points=[[0,0.5],[1,0.5]];portConstraint=eastwest;" vertex="1" parent="AfRb2iKJooxq0v11mABk-31">
          <mxGeometry y="26" width="179" height="26" as="geometry" />
        </mxCell>
        <mxCell id="AfRb2iKJooxq0v11mABk-33" value="+ field: type" style="text;strokeColor=none;fillColor=none;align=left;verticalAlign=top;spacingLeft=4;spacingRight=4;overflow=hidden;rotatable=0;points=[[0,0.5],[1,0.5]];portConstraint=eastwest;" vertex="1" parent="AfRb2iKJooxq0v11mABk-31">
          <mxGeometry y="52" width="179" height="26" as="geometry" />
        </mxCell>
        <mxCell id="AfRb2iKJooxq0v11mABk-34" value="+ field: type" style="text;strokeColor=none;fillColor=none;align=left;verticalAlign=top;spacingLeft=4;spacingRight=4;overflow=hidden;rotatable=0;points=[[0,0.5],[1,0.5]];portConstraint=eastwest;" vertex="1" parent="AfRb2iKJooxq0v11mABk-31">
          <mxGeometry y="78" width="179" height="26" as="geometry" />
        </mxCell>
        <mxCell id="AfRb2iKJooxq0v11mABk-35" value="Dataset" style="swimlane;fontStyle=0;childLayout=stackLayout;horizontal=1;startSize=26;fillColor=none;horizontalStack=0;resizeParent=1;resizeParentMax=0;resizeLast=0;collapsible=1;marginBottom=0;" vertex="1" parent="AfRb2iKJooxq0v11mABk-1">
          <mxGeometry x="1773" y="377" width="179" height="104" as="geometry">
            <mxRectangle x="1773" y="377" width="87" height="26" as="alternateBounds" />
          </mxGeometry>
        </mxCell>
        <mxCell id="AfRb2iKJooxq0v11mABk-36" value="+ field: type" style="text;strokeColor=none;fillColor=none;align=left;verticalAlign=top;spacingLeft=4;spacingRight=4;overflow=hidden;rotatable=0;points=[[0,0.5],[1,0.5]];portConstraint=eastwest;" vertex="1" parent="AfRb2iKJooxq0v11mABk-35">
          <mxGeometry y="26" width="179" height="26" as="geometry" />
        </mxCell>
        <mxCell id="AfRb2iKJooxq0v11mABk-37" value="+ field: type" style="text;strokeColor=none;fillColor=none;align=left;verticalAlign=top;spacingLeft=4;spacingRight=4;overflow=hidden;rotatable=0;points=[[0,0.5],[1,0.5]];portConstraint=eastwest;" vertex="1" parent="AfRb2iKJooxq0v11mABk-35">
          <mxGeometry y="52" width="179" height="26" as="geometry" />
        </mxCell>
        <mxCell id="AfRb2iKJooxq0v11mABk-38" value="+ field: type" style="text;strokeColor=none;fillColor=none;align=left;verticalAlign=top;spacingLeft=4;spacingRight=4;overflow=hidden;rotatable=0;points=[[0,0.5],[1,0.5]];portConstraint=eastwest;" vertex="1" parent="AfRb2iKJooxq0v11mABk-35">
          <mxGeometry y="78" width="179" height="26" as="geometry" />
        </mxCell>
        <mxCell id="AfRb2iKJooxq0v11mABk-39" value="Config" style="swimlane;fontStyle=0;childLayout=stackLayout;horizontal=1;startSize=26;fillColor=none;horizontalStack=0;resizeParent=1;resizeParentMax=0;resizeLast=0;collapsible=1;marginBottom=0;" vertex="1" parent="AfRb2iKJooxq0v11mABk-1">
          <mxGeometry x="2021" y="377" width="286" height="248" as="geometry">
            <mxRectangle x="2021" y="377" width="87" height="26" as="alternateBounds" />
          </mxGeometry>
        </mxCell>
        <mxCell id="AfRb2iKJooxq0v11mABk-40" value="+ DATASET_DIR: int" style="text;strokeColor=none;fillColor=none;align=left;verticalAlign=top;spacingLeft=4;spacingRight=4;overflow=hidden;rotatable=0;points=[[0,0.5],[1,0.5]];portConstraint=eastwest;" vertex="1" parent="AfRb2iKJooxq0v11mABk-39">
          <mxGeometry y="26" width="286" height="26" as="geometry" />
        </mxCell>
        <mxCell id="AfRb2iKJooxq0v11mABk-63" value="+ COIN_PAIR: str" style="text;strokeColor=none;fillColor=none;align=left;verticalAlign=top;spacingLeft=4;spacingRight=4;overflow=hidden;rotatable=0;points=[[0,0.5],[1,0.5]];portConstraint=eastwest;" vertex="1" parent="AfRb2iKJooxq0v11mABk-39">
          <mxGeometry y="52" width="286" height="26" as="geometry" />
        </mxCell>
        <mxCell id="AfRb2iKJooxq0v11mABk-62" value="+ GRANULARITY: int" style="text;strokeColor=none;fillColor=none;align=left;verticalAlign=top;spacingLeft=4;spacingRight=4;overflow=hidden;rotatable=0;points=[[0,0.5],[1,0.5]];portConstraint=eastwest;" vertex="1" parent="AfRb2iKJooxq0v11mABk-39">
          <mxGeometry y="78" width="286" height="26" as="geometry" />
        </mxCell>
        <mxCell id="AfRb2iKJooxq0v11mABk-66" value="+ TRAINING_MONTHS: list" style="text;strokeColor=none;fillColor=none;align=left;verticalAlign=top;spacingLeft=4;spacingRight=4;overflow=hidden;rotatable=0;points=[[0,0.5],[1,0.5]];portConstraint=eastwest;" vertex="1" parent="AfRb2iKJooxq0v11mABk-39">
          <mxGeometry y="104" width="286" height="26" as="geometry" />
        </mxCell>
        <mxCell id="AfRb2iKJooxq0v11mABk-65" value="+ TESTING_MONTHS: list" style="text;strokeColor=none;fillColor=none;align=left;verticalAlign=top;spacingLeft=4;spacingRight=4;overflow=hidden;rotatable=0;points=[[0,0.5],[1,0.5]];portConstraint=eastwest;" vertex="1" parent="AfRb2iKJooxq0v11mABk-39">
          <mxGeometry y="130" width="286" height="26" as="geometry" />
        </mxCell>
        <mxCell id="AfRb2iKJooxq0v11mABk-61" value="+ CHANGE_RATE_THRESHOLD: int" style="text;strokeColor=none;fillColor=none;align=left;verticalAlign=top;spacingLeft=4;spacingRight=4;overflow=hidden;rotatable=0;points=[[0,0.5],[1,0.5]];portConstraint=eastwest;" vertex="1" parent="AfRb2iKJooxq0v11mABk-39">
          <mxGeometry y="156" width="286" height="26" as="geometry" />
        </mxCell>
        <mxCell id="AfRb2iKJooxq0v11mABk-64" value="+ TRAINING_WINDOW: int" style="text;strokeColor=none;fillColor=none;align=left;verticalAlign=top;spacingLeft=4;spacingRight=4;overflow=hidden;rotatable=0;points=[[0,0.5],[1,0.5]];portConstraint=eastwest;" vertex="1" parent="AfRb2iKJooxq0v11mABk-39">
          <mxGeometry y="182" width="286" height="26" as="geometry" />
        </mxCell>
        <mxCell id="AfRb2iKJooxq0v11mABk-41" value="+ LABELING_WINDOW: int" style="text;strokeColor=none;fillColor=none;align=left;verticalAlign=top;spacingLeft=4;spacingRight=4;overflow=hidden;rotatable=0;points=[[0,0.5],[1,0.5]];portConstraint=eastwest;" vertex="1" parent="AfRb2iKJooxq0v11mABk-39">
          <mxGeometry y="208" width="286" height="32" as="geometry" />
        </mxCell>
        <mxCell id="AfRb2iKJooxq0v11mABk-57" value="" style="line;strokeWidth=1;fillColor=none;align=left;verticalAlign=middle;spacingTop=-1;spacingLeft=3;spacingRight=3;rotatable=0;labelPosition=right;points=[];portConstraint=eastwest;" vertex="1" parent="AfRb2iKJooxq0v11mABk-39">
          <mxGeometry y="240" width="286" height="8" as="geometry" />
        </mxCell>
        <mxCell id="AfRb2iKJooxq0v11mABk-47" value="" style="endArrow=classic;html=1;rounded=0;entryX=0.5;entryY=0;entryDx=0;entryDy=0;exitX=0.5;exitY=1;exitDx=0;exitDy=0;" edge="1" parent="AfRb2iKJooxq0v11mABk-1" source="AfRb2iKJooxq0v11mABk-18" target="AfRb2iKJooxq0v11mABk-27">
          <mxGeometry width="50" height="50" relative="1" as="geometry">
            <mxPoint x="1360" y="308" as="sourcePoint" />
            <mxPoint x="1410" y="258" as="targetPoint" />
          </mxGeometry>
        </mxCell>
        <mxCell id="AfRb2iKJooxq0v11mABk-48" value="" style="endArrow=classic;html=1;rounded=0;entryX=0.5;entryY=0;entryDx=0;entryDy=0;exitX=0.5;exitY=1;exitDx=0;exitDy=0;" edge="1" parent="AfRb2iKJooxq0v11mABk-1" source="AfRb2iKJooxq0v11mABk-18" target="AfRb2iKJooxq0v11mABk-31">
          <mxGeometry width="50" height="50" relative="1" as="geometry">
            <mxPoint x="1475.5" y="174" as="sourcePoint" />
            <mxPoint x="1342.5" y="387" as="targetPoint" />
          </mxGeometry>
        </mxCell>
        <mxCell id="AfRb2iKJooxq0v11mABk-49" value="" style="endArrow=classic;html=1;rounded=0;entryX=0.5;entryY=0;entryDx=0;entryDy=0;exitX=0.5;exitY=1;exitDx=0;exitDy=0;" edge="1" parent="AfRb2iKJooxq0v11mABk-1" source="AfRb2iKJooxq0v11mABk-18" target="AfRb2iKJooxq0v11mABk-23">
          <mxGeometry width="50" height="50" relative="1" as="geometry">
            <mxPoint x="1485.5" y="184" as="sourcePoint" />
            <mxPoint x="1352.5" y="397" as="targetPoint" />
          </mxGeometry>
        </mxCell>
        <mxCell id="AfRb2iKJooxq0v11mABk-50" value="" style="endArrow=classic;html=1;rounded=0;entryX=0.5;entryY=0;entryDx=0;entryDy=0;exitX=0.5;exitY=1;exitDx=0;exitDy=0;" edge="1" parent="AfRb2iKJooxq0v11mABk-1" source="AfRb2iKJooxq0v11mABk-18" target="AfRb2iKJooxq0v11mABk-35">
          <mxGeometry width="50" height="50" relative="1" as="geometry">
            <mxPoint x="1495.5" y="194" as="sourcePoint" />
            <mxPoint x="1362.5" y="407" as="targetPoint" />
          </mxGeometry>
        </mxCell>
        <mxCell id="AfRb2iKJooxq0v11mABk-51" value="" style="endArrow=classic;html=1;rounded=0;entryX=0.5;entryY=0;entryDx=0;entryDy=0;exitX=0.5;exitY=1;exitDx=0;exitDy=0;" edge="1" parent="AfRb2iKJooxq0v11mABk-1" source="AfRb2iKJooxq0v11mABk-18" target="AfRb2iKJooxq0v11mABk-39">
          <mxGeometry width="50" height="50" relative="1" as="geometry">
            <mxPoint x="1505.5" y="204" as="sourcePoint" />
            <mxPoint x="1372.5" y="417" as="targetPoint" />
          </mxGeometry>
        </mxCell>
      </root>
    </mxGraphModel>
  </diagram>
  <diagram id="1B9_3PMD-OmfqQ4uriRJ" name="main Flow">
    <mxGraphModel dx="629" dy="754" grid="0" gridSize="10" guides="1" tooltips="1" connect="1" arrows="1" fold="1" page="1" pageScale="1" pageWidth="3300" pageHeight="4681" math="0" shadow="0">
      <root>
        <mxCell id="thYoycdbc5IxVnPoqDkT-0" />
        <mxCell id="thYoycdbc5IxVnPoqDkT-1" parent="thYoycdbc5IxVnPoqDkT-0" />
        <mxCell id="weldyQCDT6F-2NM8_S-C-0" value="" style="shape=image;verticalLabelPosition=bottom;labelBackgroundColor=#ffffff;verticalAlign=top;aspect=fixed;imageAspect=0;image=data:image/png,iVBORw0KGgoAAAANSUhEUgAAA4QAAAIaCAYAAAB4VYO8AAAAAXNSR0IArs4c6QAAAAlwSFlzAAAPYQAAD2EBqD+naQAAIABJREFUeF7s3Qt8XGWd//Hfc9ILLZRS2iRQpEkrFVbYxVXWG7DrrYOiiOJSSAKIQCalE0DEFRSSTpOioiiXZiKZUpRLEiiKInKb4GUVFHfRlb83FGkTrm1SKLe29JLz/F9n2hNOp0kmk8zlnPN88nr5siTnPM/zez/PzJxvnjMTJXwhgAACOQj85b7FOofDObTEAm8/cY0q8RDoHgEEEEAAAQR8LMCFgo8nh6Eh4EcBJxD+03Ff8uPQGFOGwF8f/oYQCFkWCCCAAAIIIDCaAIGQ9YEAAjkJEAhz4irpwQTCkvLTOQIIIIAAAoEQIBAGYpoYJAL+ESAQ+mcuso2EQJhNiJ8jgAACCCCAAIGQNYAAAjkJEAhz4irpwQTCkvLTOQIIIIAAAoEQIBAGYpoYJAL+ESAQ+mcuso2EQJhNiJ8jgAACCCCAAIGQNYAAAjkJEAhz4irpwQTCkvLTOQIIIIAAAoEQIBAGYpoYJAL+ESAQ+mcuso2EQJhNiJ8jgAACCCCAAIGQNYAAAjkJEAhz4irpwQTCkvLTOQIIIIAAAoEQIBAGYpoYJAL+ESAQ+mcuso2EQJhNiJ8jgAACCCCAAIGQNYAAAjkJEAhz4irpwQTCkvLTOQIIIIAAAoEQIBAGYpoYJAL+ESAQ+mcuso2EQJhNiJ8jgAACCCCAAIGQNYAAAjkJEAhz4irpwQTCkvLTOQIIIIAAAoEQIBAGYpoYJAL+ESAQ+mcuso2EQJhNiJ8jgAACCCCAAIGQNYAAAjkJEAhz4irpwQTCkvLTOQIIIIAAAoEQIBAGYpoYJAL+ESAQ+mcuso2EQJhNiJ8jgAACCCCAAIGQNYAAAjkJEAhz4irpwQTCkvLTOQIIIIAAAoEQIBAGYpoYJAL+ESAQ+mcuso2EQJhNiJ8jgAACCCCAAIGQNYAAAjkJEAhz4irpwQTCkvLTOQIIIIAAAoEQIBAGYpoYJAL+ESAQ+mcuso2EQJhNiJ8jgAACCCCAAIGQNYAAAjkJEAhz4irpwQTCkvLTOQIIIIAAAoEQIBAGYpoYJAL+ESAQ+mcuso2EQJhNiJ8jgAACCCCAAIGQNYAAAjkJlDoQdq65X844r0k6rvuK/P7xJ6TjprvS47/txlapW/yxoVoeefRxOS5y7h61PZxaLce+92h58aVXpO7cK9I/O+Ej75MvfPnbcsKH3yedq1fIxhdfltPO/rI8/se/D53rnud+wx2D+9/en7s/+/bXviAPPvQbefCnv9lrbDmBT+BgAuEE8DgVAQQQQAABQwQIhIZMNGUikC8BvwTC4epxQ+HfnuzbK9Slw9/u0Of82wmETlhzvxrOOUXOP/dU+eySZXuEQefnR//z2+SO731NDl9YJZlhMDMUDvfzzECZr7nI1g6BMJsQP0cAAQQQQAABAiFrAAEEchLwSyB0w93sA2cOhTTv97xFuTuC6/tfTAe7ObMPGAqE3p1FN0i+99+Okmu+dolMmzZ1D5vMdpyAmHnOXff8LL2DOdJYcsKe4MEEwgkCcjoCCCCAAAIGCBAIDZhkSkQgnwJ+CYTeIDdcUHNqdr/v7gS6O31uIHQDohPsnK+tW7fJxV/+1tBtqM73nJ1DNxyOtPPoHOcGwAce+nU6ELZcvkSaLj0vn/Q5t0UgzJmMExBAAAEEEDBOgEBo3JRTMAITEwhCIHQqdN4H6O70bdn6RnpHMHOH0DnOed+gs8vo/RouGDq3fTpBMvP9he55mYEw8z2NE1Mf39kEwvG5cRYCCCCAAAImCRAITZptakUgDwJ+CYTeWzLdD5Bxv9e+6k5pvvKGoQ9zcXf2nPK9t4yOFAi9TO57Ap0dv6X1p+4RLN2dxeGOJxDmYbHRBAIIIIAAAggUXIBAWHBiOkAgXAJ+CYTDqbohbKQPfsm8ZTQzEA73yaRuP+4Hw4zUtnuLqPtzAmG41j3VIIAAAgggEFYBAmFYZ5a6ECiQgF8CoRO41q57Lr0T6Hx5A1jmLZ/Oz5wv5719zr8/+pH3D/3ZicxbRod7n2BmuMsMhd73CxIIC7TwaBYBBBBAAAEECiJAICwIK40iEF4BPwVC798dDK/4+CvjPYTjt+NMBBBAAAEETBEgEJoy09SJQJ4ECIR5gixCMwTCIiDTBQIIIIAAAgEXIBAGfAIZPgLFFiAQFlt8/P0RCMdvx5kIIIAAAgiYIkAgNGWmqROBPAmUOhDmqQwjmiEQGjHNFIkAAggggMCEBAiEE+LjZATMEyAQBmfOCYTBmStGigACCCCAQKkECISlkqdfBAIqQCAMzsQRCIMzV4wUAQQQQACBUgkQCEslT78IBFSAQBiciSMQBmeuGCkCCCCAAAKlEiAQlkqefhEIqACBMDgTRyAMzlwxUgQQQAABBEolQCAslTz9IhBQAQJhcCaOQBicuWKkCCCAAAIIlEqAQFgqefpFIKACBMLgTByBMDhzxUgRQAABBBAolQCBsFTy9ItAQAUIhMGZOAJhcOaKkSKAAAIIIFAqAQJhqeTpF4GAChAIgzNxBMLgzBUjRQABBBBAoFQCBMJSydMvAgEVIBAGZ+IIhMGZK0aKAAIIIIBAqQQIhKWSp18EAipAIAzOxBEIgzNXjBQBBBBAAIFSCRAISyVPvwgEVMAJhAEd+ojDHvzzPHnsLe+X98y8PWylydtPXMPzfOhmlYIQQAABBBDInwAXCvmzpCUEEAigwIZYtF1EH9R27OXO8+HzrbXVsQCWwZARQAABBBBAAIFxCRAIx8XGSQggEAaBgVj0G7bod1QmVkVEa9Xc1dcjln6spWb+ZWGojxoQQAABBBBAAIFsAgTCbEL8HAEEQikwEKtv1qJOsKftHzno6qs3O0XGb3tyf9uanBKRe1pqq68MZeEUhQACCCCAAAIIeAQIhCwHBBAwTmAg1vAFLfqzepIdqbzuxg1egHj303NtbfeI1smWuvnXGYdDwQgggAACCCBglACB0KjpplgEEBiIRaNa5FJtSaRyZfKp4USuuHXt4VaZ6tFKxVtrqm9CDQEEEEAAAQQQCKsAgTCsM0tdCCCwl8BAY7RWa7lGWypSubLj8dGI4t1PH2NrOyVaNbTUVd0JJwIIIIAAAgggEEYBAmEYZ5WaEEBgL4H1sfNOtsTq0mowUtm2+pGxEDV39n5QlEpZYp0Urz30gbGcwzEIIIAAAggggECQBAiEQZotxooAAuMSWB9r+LAlOqWVPrGybdWDuTTS3NV3koi+Q4mKLK+tejiXczkWAQQQQAABBBDwuwCB0O8zxPgQQGBCAutj0feUiUopSz43Z2XHXeNprKm7t1albzW1I62nLxj1VtPxtM85CCCAAAIIIIBAqQQIhKWSp18EECi4wIux+iNtUSnbUl+uXNlxy0Q6bO5a1yCivmRptSheV7V2Im1xLgIIIIAAAggg4BcBAqFfZoJxIIBAXgU2xc6t2qHLerSlr61sW9Wej8abu3ovEZEzrZ07I/GzDuvPR5u0gQACCCCAAAIIlFKAQFhKffpGAIGCCLwai81+Q+/o0SK3V7Ynv5HPTpo7++Ki5MOvTbIi1yw+dGs+26YtBBBAAAEEEECg2AIEwmKL0x8CCBRUQF9wwdSBwe09WvQvKtuTzYXobFlX77ds0W9vrZ3/sUK0T5sIIIAAAggggECxBAiExZKmHwQQKIpA/9LofVrkicr25BcK2WFzV29SlBzQUlO9uJD90DYCCCCAAAIIIFBIAQJhIXVpGwEEiirQH4uuUSKbyhPJhmJ03NzV26VEti6vrT63GP3RBwIIIIAAAgggkG8BAmG+RWkPAQRKItAfi96kRKaWJ5J1xRxAU2fvPUqpp1pqqz5fzH7pCwEEEEAAAQQQyIcAgTAfirSBAAIlFeiPNVyvRVdVJpInF3sgHR168nMzentE1MMttdVXFLt/+kMAAQQQQAABBCYiQCCciB7nIoBAyQX6l0a/ppV6d0X/SxF1552DpRhQfM0zB9o77ZQoubOlpuqqUoyBPhFAAAEEEEAAgfEIEAjHo8Y5CCDgC4H+xujlWutPvr5DRd6aTL5SykFd3rm2qkxZKUus6+K18/Lydw9LWQ99I4AAAggggIAZAgRCM+aZKhEInUB/Y/1FWqvo9kErcugNNzznhwKbuvqOVKJ7tLYva61bcIsfxsQYEEAAAQQQQACB0QQIhKwPBBAInEB/Y8O5SusmER0pT6z6u58KiN+27r22pXpEyVktNdU/9NPYGAsCCCCAAAIIIJApQCBkTSCAQKAE+hsbThMtCZUOg8nf+3HwzV1rF4lYKUurRfG6qof8OEbGhAACCCCAAAIIOAIEQtYBAggERmDggujHtS0/EFGRikTHL/088ObuZz4tevBmy9aR+BnzH/XzWBkbAggggAACCJgrQCA0d+6pHIFACQxcUP8f2lbOn3f4VEWi474gDD7e2XeWrfTXtKhIa23Vn4MwZsaIAAIIIIAAAmYJEAjNmm+qRSCQAs83NhwzSeuUiF5SkVi1JkhFNHf3xkTrC9WkqYuWL577dJDGzlgRQAABBBBAIPwCBMLwzzEVIhBogecbo0dM1pLSouMViVU3BbGYpq51lylR/2lt2RyJn3fkS0GsgTEjgAACCCCAQDgFCIThnFeqQiAUAi9ecN5bbNtKaaW+U9HWsTLIRTV39a7QIsdueG1jJNlwzI4g18LYEUAAAQQQQCA8AgTC8MwllSAQKoFNnz/7gJ07pjg7gz+sSKz6WhiKW9a57jqtrPkttVWfDEM91IAAAggggAACwRcgEAZ/DqkAgdAJ6Hh80sDAc84HyPy6IpG8PEwFNnetu0lE7dNSW10bprqoBQEEEEAAAQSCKUAgDOa8MWoEQi3QH6u/R0StrUgkLwpjoc3dfWuU2JuW18xvCGN91IQAAggggAACwREgEAZnrhgpAkYI9Mei3SKypSKRPDfMBTd19d6vRP7cUlv9xTDXSW0IIIAAAggg4G8BAqG/54fRIWCUQH8sukpE71+RWHVa2Av/9ppnpr08ONgjtn6opW5+POz1Uh8CCCCAAAII+FOAQOjPeWFUCBgn0B+LXiNKFla0JT9hSvHxW/5RYU8qc94reUtLbfW3TKmbOhFAAAEEEEDAPwIEQv/MBSNBwFiB/lhDqyh9fPmcTREVv3O7SRBX3P70Wy3bTlmWuip+elXSpNqpFQEEEEAAAQRKL0AgLP0cMAIEjBbYGGu41BZ96tQpg5GZ16w28o+2N93+7NHK3tGjbfX51jOqu4xeEBSPAAIIIIAAAkUVIBAWlZvOEEDAK9C/NNooShp3lklk7vXJp03WWdbVd5zWukeUWtxSW3WPyRbUjgACCCCAAALFEyAQFs+anhBAwCPQv7T+bFFqxeBOFTm4o+Mv4Ig039b7MbHkx5bSi+I183+BCQIIIIAAAgggUGgBAmGhhWkfAQT2Euhf2vCfovSNg4ODkYNvWP0/EL0p0NS1drGIdYOtBiNX1rz1MWwQQAABBBBAAIFCChAIC6lL2wggMFwY/Kiy5B6xdaS8PflziPYWiHf3nmOLLLN32pEVZy74G0YIIIAAAggggEChBAiEhZKlXQQQGCYMRo/TIj2WqMXl7R28T26UNdLcue4iUVa9pVQkXjPveZYTAggggAACCCBQCAECYSFUaRMBBIYJg/Xv0KKcMHhheXtHN0TZBZo6e69QSn9i3333W3TpyeWvZT+DIxBAAAEEEEAAgdwECIS5eXE0AgiMQ6B/6dLDtNrZY2n91fL2VavG0YSxpzR3931da/2u1tqqiIjSxkJQOAIIIIAAAggURIBAWBBWGkUAAVdgIBo9WE+RlG3LTQe1J69BJneBZV29CS1ycEtt9Sm5n80ZCCCAAAIIIIDAyAIEQlYHAggUTGDgnHNm6OmTU9rW91W2J1sL1pEBDTd39t7ilNlSV32WAeVSIgIIIIAAAggUSYBAWCRoukHANAEtojY2RlNaq99VJDouM63+QtTb1LXuh5ao55fXVscK0T5tIoAAAggggIB5AgRC8+acihEoisBAY/SHWstzFYlkY1E6NKETrdWy7r6UVup3LTVVhGwT5pwaEUAAAQQQKLAAgbDAwDSPgIkCA43RW7WWwYpE8mwT6y9kzVfdPTBj8+bNPVrLT1rrqlcUsi/aRgABBBBAAIHwCxAIwz/HVIhAUQU2xKI3KJE5FYnkfxa1Y4M6i3c/Pde27R4RnWypm3+dQaVTKgIIIIAAAgjkWYBAmGdQmkPAZIENsejVSvRRFYlVHzXZoRi1X3Hr2sOtSVZKiyxvram+qRh90gcCCCCAAAIIhE+AQBi+OaUiBEoisKExGldaPlw+Zd+IuuaarSUZhGGdXt791DFluiwllmpoOb3qTsPKp1wEEEAAAQQQyIMAgTAPiDSBgOkCA431X9Ra1U2zpkZmrFw5YLpHMeuPd6/7gK1Vj9jyyZYzqu8vZt/0hQACCCCAAALBFyAQBn8OqQCBkgoMNDYs0VpfYis7clDbjetKOhhDO2/u6jtJRN+hREWW11Y9bCgDZSOAAAIIIIDAOAQIhONA4xQEENglsLGx4Qxb62/aSiIHtSX/iEvpBJpu660VS18r1uRFrae/5fHSjYSeEUAAAQQQQCBIAgTCIM0WY0XARwIbYvWfVqJu0aIilYmO3/hoaMYOJX57X9S29aW2tSOy4vSFTxkLQeEIIIAAAgggMGYBAuGYqTgQAQRcgQ2x8xYpcT7h0o5UJm7sQcY/As1dvZeIkjOtHTsj8bMO6/fPyBgJAggggAACCPhRgEDox1lhTAj4WGBDrOF9SnTKUnLmnLbkj3w8VGOH1ty5Li6iPnLA5LJFX1h8KJ/4auxKoHAEEEAAAQSyCxAIsxtxBAII7BZY3xj9Z0srJwz+15y2jtuA8a9AU9fab4lYb2+trf6Yf0fJyBBAAAEEEECg1AIEwlLPAP0jEBCB9Y3nzVfa6rGUurq8reOGgAzb6GEu6+7r0KJntdRULzYaguIRQAABBBBAYEQBAiGLAwEEsgq8dsEF5VvtbT1a6dsq21ZdnfUEDvCNQHNXb5eIfqOldv45vhkUA0EAAQQQQAAB3wgQCH0zFQwEAX8KPB+NTp80Wae0Ug9VtiXj/hwloxpNoKmz9x5L9NrldfMvQgoBBBBAAAEEEPAKEAhZDwggMKpAf6zhAS36T5WJ5BehCqZAtOOxyQfvPyeltTzSUlt9RTCrYNQIIIAAAgggUAgBAmEhVGkTgZAI9Mei39ciGysTySUhKcnYMuI3PnOgPX0wJUrd2VJTdZWxEBSOAAIIIIAAAnsIEAhZEAggMKxAfyz6PaWkrLwteSZE4RBYtub5eXrn9h6x5fqWM6oT4aiKKhBAAAEEEEBgIgIEwonocS4CIRXoj0XblJJDytuSnw5picaW1dTVd6QScW4f/XJrXdUtxkJQOAIIIIAAAgikBQiELAQEENhDoD/W8HWl9bvmtCcjSkTDEz6B+G3r3mtbKiVKPttSU/3D8FVIRQgggAACCCAwVgEC4VilOA4BAwQ2LI02iagTrTd2RMpvuuk1A0o2tsT4HX0fsQd1j4gdaald0GMsBIUjgAACCCBguACB0PAFQPkIuAIDS6MX2yLnWDslUp5MvoBM+AWau3s/LVputmwdiZ8x/9HwV0yFCCCAAAIIIJApQCBkTSCAgAwsra+3RX1FyaRFFe3t/4DEHIGmzrVnKVX2NS0Saa2t+rM5lVMpAggggAACCDgCBELWAQKGCwwsbajRSl8nWkcq2lf9wXAOI8tvvq03JpZcqCZNWbR88dynjUSgaAQQQAABBAwVIBAaOvGUjYAjMLC04SSt9B2iJVLRnnwYFXMFmrv7LhWtT7UmlUXiiw99yVwJKkcAAQQQQMAsAQKhWfNNtQgMCQwsjX5QK+kRrT5R0d7xADQINHf1rlBKjn3h1Y2RZMMxOxBBAAEEEEAAgfALEAjDP8dUiMBeAi8sOffdZWVlKdHqvIr2ju9DhIAr0NS57joRtaC1rvokVBBAAAEEEEAg/AIEwvDPMRUisIfACxc0vL3M1inR+oqK9lXfgweBTIFlXb2rtci0ltrqWnQQQAABBBBAINwCBMJwzy/VIbCHwPMXRudNGpSUJbJyTiKZgAeBkQSau3vXKFGbltdUNaCEAAIIIIAAAuEVIBCGd26pDIE9BF65+NwDt28vS2lRd1YkOq6CB4FsAk1dvfeLyF9aa6svyXYsP0cAAQQQQACBYAoQCIM5b4wagZwEdPzUKRs3zkpprX9VkVjVlNPJHGyswLfXPDPtlZ12Smv7py118+PGQlA4AggggAACIRYgEIZ4cikNAVegP1Z/r4j6e0UieTEqCOQiEL/lHxX25Ekp0XJrS231t3I5l2MRQAABBBBAwP8CBEL/zxEjRGBCAv2x+jtE1KsViWT9hBriZGMF4p19C2yle0T0N1pq53cYC0HhCCCAAAIIhFCAQBjCSaUkBN7cGYyuFpHpFYlkDSoITESg6fa1R4utesRWn289o7prIm1xLgIIIIAAAgj4R4BA6J+5YCQI5FWgPxa9TonML08kP5nXhmnMWIFlXX3HadEpEXVaS23VPcZCUDgCCCCAAAIhEiAQhmgyKQUBz87glUrkfXPK50ZUPL4TGQTyJdB8W+/HxJIfW6psUbzm0F/kq13aQQABBBBAAIHSCBAIS+NOrwgUTKA/1vBlJfrTkyZvj8y69nsvF6wjGjZWoPn2vlPF1h2WGozEa976mLEQFI4AAggggEAIBAiEIZhESkDAFVgfi15oiSwps+zI7JU3PosMAoUSaOruPUeJLLN32pEVZy74W6H6oV0EEEAAAQQQKKwAgbCwvrSOQNEE+mP154iouKUkMqct+UTROqYjYwWaO9ddJKKilmUtitfMe95YCApHAAEEEEAgwAIEwgBPHkNHwBXoj9UvFlE37FQqMretg1v4WBpFE2ju6r1cRE6y7B2R+BkLXy1ax3SEAAIIIIAAAnkRIBDmhZFGECidQH+s4UQR/SNl6UXlK1f9d+lGQs+mCjR3931daf2u5TVVEVFKm+pA3QgggAACCARRgEAYxFljzAjsFuiPNfy7FrvHstQp5SuT9wKDQKkElnX1JmzRc1tr53+6VGOgXwQQQAABBBDIXYBAmLsZZyDgC4GBWPSdtkiPUmppRVvHHb4YFIMwWmBZV9/NWmvVUld9ltEQFI8AAggggECABAiEAZoshoqAKzAQq3+bLcoJgy0VbR2rkUHALwLNXb13KZEXltdWx/wyJsaBAAIIIIAAAiMLEAhZHQgETOCZJUsOmVJmp5TWyYr2VdcFbPgMN/QCWjV19aWUUr9rqam6LPTlUiACCCCAAAIBFyAQBnwCGb5ZAi9FozMHJ+vUoFY/Pqg9eaVZ1VNtUASuuntgxubNr/dopX7SWlO9IijjZpwIIIAAAgiYKEAgNHHWqTmQAvrUU8s2VhyY0iK/rUh0fCWQRTBoYwTi3U/PtbVOiZZVLXVV7GQbM/MUigACCCAQNAECYdBmjPEaKzAQi96tRfVVJDouNBaBwgMlcMWtaw+3JlkpS2R5vKb6pkANnsEigAACCCBgiACB0JCJpsxgCwzEop1aZFtFInlOsCth9KYJNHX2vUsp3aPFXtJau2CNafVTLwIIIIAAAn4XIBD6fYYYn/ECG5bWJ5VSB1QkkouNxwAgkALx7nUfsLXqEUs+2XJ69f2BLIJBI4AAAgggEFIBAmFIJ5aywiGwYWn020rkiIr25InhqIgqTBVo7lp7kmhrjVJq0fLaqodNdaBuBBBAAAEE/CZAIPTbjDAeBHYLbGiMtihbf2Dzlh2R+d/73hvAIBB0geaup2tEBq+ztETidfP/EPR6GD8CCCCAAAJhECAQhmEWqSF0Ahsao1+ytJw2VSZH9k8kXgxdgRRkrEBTZ19UKX2pbVmRFafPe8pYCApHAAEEEEDAJwIEQp9MBMNAwBXY0Fi/VGl10WSZHJmVSPQhg0DYBJq7ei8R0WdZOwcXxc86rD9s9VEPAggggAACQRIgEAZpthhr6AU2XtBwlm3rr5WJjsxOrPpz6AumQGMFmjvXxcVSHzmgrGzRFxYfutVYCApHAAEEEECgxAIEwhJPAN0j4NkZ/IzS6iZbJHJQIvlbZBAIu0BzV+/VSuTI5bXVHwt7rdSHAAIIIICAXwUIhH6dGcZllMCGxvoTlFb32aIiByU6fmpU8RRrtMCy7nUdWqxZLTVV/FkVo1cCxSOAAAIIlEqAQFgqefpFYLfAhsYlxyptp2yxaw9K3Hg3MAiYJtDc1dslIm+01FafY1rt1IsAAggggECpBQiEpZ4B+i+ogNZaF7SDADeulOLxH+D5m+jQeWxMVHDv83lM5d+UFhFAAAEECi/ABWHhjemhhAJc9I6Mz8VrCRemD7rmsZH/SeAxlX9TWkQAAQQQKLwAgbDwxvRQQoF8XvQObhyQV9quk/1Oq5Xtf/6TDG5YLzNjF+ZU3fa//kVev6NLZjZeJGVzynM6d7iD9ZbN8vJ135Zp//FB2ef9x+XUHhevOXGF7uBsj40/9m2W1B82Se2/V8jBs6Zkrf+1rYPy3Z9ukH9dsK8c//aZWY/P5wG/+ssr8n9rN8vnPlwpM6aVDdt0rvVkNjKWPnhM5XNWaQsBBBBAoFgCBMJiSdNPSQSyXfTmMqh8BMI3fv2wbL7nbjngki/lJRDmMv7MY7l4nYhe8M/N9thwAtCvn3hVzvpg5ZgCYSlFxhLWJlrPWPrgMVXKVUDfCCCAAALjFSAQjleO8wIhkO2i191h2/ncs6KmTJX965fIlH96uzjh7+VvfUPs114Va8b+6QDnfA23Q+js+r266gbR27cNHevs/jnh77WuW9PnTfmnI2W/02qG2nT+e7TdxVcS18v2v+76M4Qzas9M7/4NN9bJVVVDO4TOsVtSD6TPccY/6ZC3yAEXfUHU9H3F257bNxevgVjMHLJ1AAAgAElEQVTCBRvkaI+NFzZtl1t+vkG2bLNlXvlUmbXvJHn2xe2ydfugLDx4mpTPnCwPPf7y0Ng+cvQB8o75+w3tEDo/+J8nX0v//NUtgzJ7xuRRd++c45zAldnmYQdPk65f9sv0qWWyftN2mVym5OT3zJZ/rtpXnB2/u3/7ouwY1Okxbn7DHrGP8dTj7HKO1MfrbwwO+XjHxGOqYMuVhhFAAAEECihAICwgLk2XXiBbIHz9+2tkx5N/SwenbX/4P9n63z+XmfVL5JVVN8jkhYfLfv+5WNxjZpzxWXl1dXKPW0adkOeGRCdIOsc6t5K64W/fk06Wqe/41z1CW7YdQu8u4uDAwNAtpq/f0Z0GdYKke8zMpRfIa7fdnL5l1Ply+ndCbVl5eTp8Ov1bsw4casMbaqe+/Uge/6VfoiUbQbbHhndH7TdPvCpPvrB1aLfQ+Zl7W+hdv9komzbvlMXHlu8RCP/7T6+kw9uc/Senw9P7j9h/1FtJh2vzxHcdmD7XCaGnvG+OrH5ofdrL7ests6cMfX+0QOgGTnfHM5d6Mvs49dg5cucjG4dujfXuHO4/fRKPqZKtaDpGAAEEEBivAC9e45XjvEAIZLvodXbOyioPSgc/98t7a6gT8tz3/Tk7dc6On/c9hNM+9JGh3UH3fGdHcd9PnSJb7r93r/cKjuWWUTdUencQM98r6I5x35NPkS0P3DsUCN2waU2fPhRC3UDq7IJ6dybZzQjEEi7YILM9NjIDobND6H2PnndHz9mhywyEbvjab5+yMb+3MLNNNxC6YdINn+9eOEPufewl+fgxB6Z3C8dyO2eu9YzUh9Pn9389kN49db/cXcJ/qd6P19SCrVgaRgABBBAolAAvXoWSpV1fCGx95Ffae9umMyjvrZjb/u/3Ew6Ew31IzEgfHlOKQOh+2Iz3Nlgn3E479nge/75YpaUZxC///LJ2b9F0Ap3z9fTAtvT/O7eAOl/eHTU3EDrfdz48xvlyAmLPHzYNu0OYSyB0P5Ams81iBMKR6hktEP7otxsl8o5Z6TDq/eKXLKVZy/SKAAIIIDAxAS4IJ+bH2T4XyLYLknnLqLPD5t6GOdZbRp1bM6e+69/2ur30lfaV6Vs23R06p71Jc+dm/VCZzFtGX7vlJplx1jmy9WcPpbVHu2V0uB1C55bRLff/RGYuiaXPdz+VlEDo88Vb4OFle2yMtKPmBijn00Td9w3uu481oR1C7yeUetscKRDm45bRzIA7Uj0j3TLq1HzuRw5K70664XfugVN5TS3wuqV5BBBAAIH8C/DilX9TWvSRQLaLXmeow32ASz4+VMb7YTPuB7zs6OtL32I6+a2HjfqhMk5Q3fqLn6Ylp33gw+mwOZYPlRkuEDo7hN72+FAZHy3QEg4l22PD/UCVgw+cMvShMu4to86tm4/3bk5/yIvzwS/9r+wQ73vrnLJy2SF0jh+uTff2zMxbRp0glsuHyjjt51qPU2tv/xvDfnANHypTwoVL1wgggAACeRcgEOadlAb9JJDtotdPYy32WLi9rdji/uqPx0b+54PHVP5NaREBBBBAoPACBMLCG9NDCQX8etHr/ZMUXh7vn74oNBsXr4UW9nf7xX5seHf0MmWc9yzm44/ZO59C6r4P0tvHWP7sRT5mi8dUPhRpAwEEEECg2AIEwmKL019RBYp90VvU4ibYGRevEwQM+Ok8NvI/gTym8m9KiwgggAAChRcgEBbemB4MEtgYazjZVrpT2zpS2b7q1waVTqkIFFVgWVfvai0yraW2uraoHdMZAggggAACIRMgEIZsQimndAIbYw0ftrXdo0V9tLI9mSrdSOgZATMEmrt714iWl1tqq6NmVEyVCCCAAAII5F+AQJh/U1o0UGD9+ee911JWSos6u7K94y4DCSgZgZIINHWtu98S9ZfltdWXlGQAdIoAAggggEDABQiEAZ9Ahl96gfVLlhxlWbYTBi+rbO+4pfQjYgQImCNw8Zpnps3YOZgSrX7aUlcVN6dyKkUAAQQQQCA/AgTC/DjSiqECLyxZUl02yU5pW19b2b6q3VAGykagpALxW/5RYU+a5NymfWtLbfW3SjoYOkcAAQQQQCBgAgTCgE0Yw/WPwPPR6JxJUySltHSXJ5Lf9M/IGAkC5gnEO/sW2Er3iOhvtNTO7zBPgIoRQAABBBAYnwCBcHxunGW4gD777H0G9pvqhMGflyc6lhnOQfkI+EKg6fa1RyvbSllKLo7XVHf5YlAMAgEEEEAAAZ8LEAh9PkEMz58CG2LR+0X0XyoTq/ggC39OEaMyVODyrqeOK5OylIg6raW26h5DGSgbAQQQQACBMQsQCMdMxYEI7BLoj9XfqUW9VJlINmCCAAL+E4h3PfNRW+x7ROtIS131z/03QkaEAAIIIICAfwQIhP6ZC0YSAIH+WMN3tegplYlkXQCGyxARMFagubPvVFG6w1JWJF4z7zFjISgcAQQQQACBLAIEQpYIAmMU6G+MrtRa5lUmkieP8RQOQwCBEgo0dfeeo7SO25P0ohWLF/ythEOhawQQQAABBHwrQCD07dQwMD8J9DdGv6a0/Nuc8rkRFY/bfhobY0EAgZEFmjvXXSRKRQd3bItc+dnDn8MKAQQQQAABBPYUIBCyIhDIItDfGL1caTnJsqZGZq9c+SpgCCAQLIHmrt7LReQky94RiZ+xkMdwsKaP0SKAAAIIFFiAQFhgYJoPtsD6WPTzZSLnidoZKW+76flgV8PoETBXoLlz3ddF1DHLa6sWKaW0uRJUjgACCCCAADuErAEExiSwPhY9T4lcYYmOlCdW/X1MJ3EQAgj4VqCpa21CxJrbWlv9ad8OkoEhgAACCCBQZAF2CIsMTnfBEBiI1Z9ui2qzRCLlieTvgzFqRokAAtkElnX13ayVVi011WdlO5afI4AAAgggYIIAgdCEWabGnAQGYvWfsEV9X4mKVCQ6fpnTyRyMAAK+F2ju6r1LibywvLY65vvBMkAEEEAAAQQKLEAgLDAwzQdLYKBxyQdE2ymt9MkVbavuD9boGS0CCIxVoKmrt8cS/fvltfMvHes5HIcAAggggEAYBQiEYZxVahqXwEBjwzFa2z3OR9RXtCXvHFcjnIQAAoEQ+NLdT8yYtmWflC1yb2tN9YpADJpBIoAAAgggUAABAmEBUGkyeAIbG6NH2FqcMNhc0dbx3eBVwIgRQCBXgXj303NtbadEq1UtdVXX5Xo+xyOAAAIIIBAGAQJhGGaRGiYk8NzSzx06WU1OiVLtFW0dKyfUGCcjgECgBOK3P/s2e3BHj4hqaamrXh2owTNYBBBAAAEE8iBAIMwDIk0EV6Dv/PNnTbMGUyL6rorEqq8FtxJGjgAC4xVo6ux7lyjdI2Ivaa1dsGa87XAeAggggAACQRQgEAZx1hhzXgR0NDp5YLJOWUo9MqcteUVeGqURBBAIpEC8e90HbK1SYsnJLadX84FSgZxFBo0AAgggMB4BAuF41DgnFAL9sYZ7RMlTFW0dnw9FQRSBAAITEmjuWnuSiLVGiVq0vLbq4Qk1xskIIIAAAggERIBAGJCJYpj5FRiIRbu1Upsr2jrOy2/LtIYAAkEWaO5aVyOirrO0jsTr5v8hyLUwdgQQQAABBMYiQCAcixLHhEqgf2n9jSJqv4r25OmhKoxiEEAgLwJNnX1REX2ZLrMWrTh93lN5aZRGEEAAAQQQ8KkAgdCnE8OwCiPQv7T+WhF1WEV78hOF6YFWEUAgDALNXb2XiOizrH2mLYqfclB/GGqiBgQQQAABBIYTIBCyLowR6F8adf749HEDA5siR95553ZjCqdQBBAYl0Bzd98yEb3IenVjJN5wzJZxNcJJCCCAAAII+FyAQOjzCWJ4+RHoXxq9TET/57ZtduTQ1atfyk+rtIIAAmEXaO7qvVqJHLm8tvpjYa+V+hBAAAEEzBQgEJo570ZV3b802qiUxCw9KTK7vf0Zo4qnWAQQmLBAU+e6DlHqwNba6lMn3BgNIIAAAggg4DMBAqHPJoTh5Fegf+mSs5WyW5W2I3Pab/xrflunNQQQMEVgWXdvp9ayraW2+hxTaqZOBBBAAAEzBAiEZsyzkVX2nx89VSxJOh8fP6d91f8aiUDRCCCQN4Hmrr4fKyXrltdUXZS3RmkIAQQQQACBEgsQCEs8AXRfGIH+xvqPiVY/Vloi5e3JnxemF1pFAAGTBKIdj02unDEnJdr+dWvdgstNqp1aEUAAAQTCK0AgDO/cGltZ/wXnHS+2lbK1WnxQe8c9xkJQOAII5F3ga519s7aK7tFKf7+1dv7X894BDSKAAAIIIFBkAQJhkcHprrAC/Rcs+Vex7ZSt7QsPar+xu7C90ToCCJgosOzmp+bpyWUpUbKypaY6YaIBNSOAAAIIhEeAQBieuTS+kv4LGxbKoE4pkSvLE8kbjQcBAAEECibQ1PXkkUompyytvhyvq7qlYB3RMAIIIIAAAgUWIBAWGJjmiyMw8PnowfYO6bFEbixPJK8tTq/0ggACJgs0dT/zHrF39mhRZ6+oq77LZAtqRwABBBAIrgCBMLhzx8h3Czx5Qd3++9v7ppSon1QkOlYAgwACCBRLIN7Z9xHb0inR6oSW2qqeYvVLPwgggAACCORLgECYL0naKYmAjset/oHnU0r0YxWJVZeVZBB0igACRgs0d/d+WrTcYll6Ufz0+Y8ajUHxCCCAAAKBEyAQBm7KGLBXYEOs/kci6tnKRLIRGQQQQKBUAs3dfWeK1ldZO3dG4mcd9qdSjYN+EUAAAQQQyFWAQJirGMf7RmAg1nCbFtlRkej4nG8GxUAQQMBYgaau3qVK5KJBbUeurFvQZywEhSOAAAIIBEqAQBio6WKwrsBALHqDFjW7ItFxKioIIICAXwSaO9ddKqIWW5PLFsUXH/qSX8bFOBBAAAEEEBhJgEDI2gicwEAserUWObIikfxY4AbPgBFAIPQCy7p7W7WW4w95W9WihmPUjtAXTIEIIIAAAoEWIBAGevrMG/yGWP1yJepD26bsGzn0mmu2midAxQggEASB5q6+a5WSty6vqTopCONljAgggAAC5goQCM2d+8BVviEW/S8lUjto7YgcvPK7A4ErgAEjgIBRAsu6elfbWk9vrZtfY1ThFIsAAgggECgBAmGgpsvcwW6IRc9Xor9gKx05qO3GdeZKUDkCCARJoLmzd40oebmltjoapHEzVgQQQAABcwQIhObMdWAr3RCrP1OJ+oatJHJQW/KPgS2EgSOAgJECzd299yktf11eW32JkQAUjQACCCDgawECoa+nh8FtjNV/2hZ1c5lVFpm98jv8wWeWBAIIBE7g4jXPTJuxczAlSv20paYqHrgCGDACCCCAQKgFCIShnt5gF/dirGHRoOgHLUtH5qxc9VCwq2H0CCBgssBX17xQ/sbON3q0Vre11lVfbbIFtSOAAAII+EuAQOiv+WA0uwU2LK1/v1KS0kqdUdmW/BEwCCCAQNAF4p19C2wlKRH7my218zuCXg/jRwABBBAIhwCBMBzzGKoqNpx/3r8oy3LC4Bcr2zpuC1VxFIMAAkYLNN269mhVZqUsJRfHa6q7jMageAQQQAABXwgQCH0xDQzCFdhw/vkLlDWY0kpfXdm26gZkEEAAgbAJNN3Rd6wM6h49aJ++4swFPw5bfdSDAAIIIBAsAQJhsOYr1KNdv2RJhVVmp7TWt1W2r+I9NqGebYpDwGyBeNe6j9rKukdsHWmpq/652RpUjwACCCBQSgECYSn16XtI4PlodPqkySqltO4pb08uhwYBBBAIu0BzZ9+pIjppWdaieM28x8JeL/UhgAACCPhTgEDoz3kxblQblkYftET9v/L2jv8yrngKRgABYwWaunvPUVrH7UlTFq1YfMjfjIWgcAQQQACBkgkQCEtGT8euQP/S6A+U6P7y9lXno4IAAgiYJtDU3Xeh0rphcMe2yJWfPfw50+qnXgQQQACB0goQCEvrb3zv/Uvrb9airMr25JnGYwCAAALGCjR39V4uIidZ9o5I/IyFrxoLQeEIIIAAAkUXIBAWnZwOh3YGGxsS2tZzK9uTn0YFAQQQMF2guXPd10XUMctrqxYppbTpHtSPAAIIIFAcAQJhcZzpJUNgoDF6lW3LOyvakxElwoUPKwQBBBAQkebu3jal5ZDltdX8oowVgQACCCBQFAECYVGY6cQrMNAYbdJaPiZ6UqSivf11dBBAAAEE3hRY1rXuZq0s1VJTdRYuCCCAAAIIFFqAQFhoYdrfQ2CgMXqx1vK53WFwPTwIIIAAAnsLNHf13iVar2+pm78UHwQQQAABBAopQCAspC5t7yGwPhaNWiKXiR6MVLSv/gc8CCCAAAIjCzR39aWU2P+3vHb+pTghgAACCCBQKAECYaFkaXfPMNgYrbW0XCtaRyraV/0BHgQQQACB0QW+tPqJGftM3yelRe5tralegRcCCCCAAAKFECAQFkKVNvcQGGis/6St1e1KS6SiPfkwPAgggAACYxOIdz8x19ZOKNQ3ttbOv3ZsZ3EUAggggAACYxcgEI7diiPHIbCx8bwPaW2ltFafqGjveGAcTXAKAgggYLRA/PZn32bbO1OipbWlrnq10RgUjwACCCCQdwECYd5JadAV2HjBkndr205ZSp87u23VD5BBAAEEEBifQFNn37uU0ilL1Pnx2qo142uFsxBAAAEEENhbgEDIqiiIwAux+iPLRFIi6isVieTNBemERhFAAAGDBK64dd0HrDKVEktObjm9+n6DSqdUBBBAAIECChAIC4hratPPx86tmiRlKRG5viKRTJjqQN0IIIBAvgXit/d9wrb1nVrZkdaaBb/Kd/u0hwACCCBgngCB0Lw5L2jFz8Zis6fIDmdncE1FouOqgnZG4wgggICBAs1d62pEqessW0fidfP51GYD1wAlI4AAAvkUIBDmU9Pwtp684IKpM+1tKRH9y4rEqibDOSgfAQQQKJhAU+faqBLrMrvMWrTi9HlPFawjGkYAAQQQCL0AgTD0U1y8Avtj9feKqL9XJJIXF69XekIAAQTMFIh3Pf0FW+zP7hQ78tXaBRvMVKBqBBBAAIGJChAIJyrI+WmB/ljDHUrJK+VtHVFIEEAAAQSKI9Dc3bdMRC+yXp0SiTfM3VKcXukFAQQQQCBMAgTCMM1miWrpj0VvUkrvU962qrZEQ6BbBBBAwFiB5q7eq0X0US218z9qLAKFI4AAAgiMW4BAOG46Tty1M1h/vYiqrkgkP4kIAggggEBpBJo613WIUge21lafWpoR0CsCCCCAQFAFCIRBnTkfjLs/1vBVEf3e8vK5ERWP7/TBkBgCAgggYKzAsu7eTq1lW0tt9TnGIlA4AggggEDOAgTCnMk4YdfOYPQrIvKpzZO3R+Zf+72XUUEAAQQQKL1Ac9e6HytlrVteU3VR6UfDCBBAAAEEgiBAIAzCLPlsjP2x6IUiesl2S0fesvLGZ302PIaDAAIIGCsQ/7meNPhCb4+l1a+X11VfbiwEhSOAAAIIjFmAQDhmKg7ctTNYf45SapmUlUXKr/vO31BBAAEEEPCXwGWdfbOmKElpsX/QWjv/6/4aHaNBAAEEEPCbAIHQbzPi4/GsX9pwWpnS7WLbkfLv3Pg7Hw+VoSGAAAJGCyy7+al5enJZSpSsbKmpThiNQfEIIIAAAqMKEAhZIGMSGDg/+nHbkrssW0fKv7Pqv8d0EgchgAACCJRMIL6m7+32Tt0jor/SUjv/5pINhI4RQAABBHwtQCD09fT4Y3AD59f/h22plGXLKeXfSd7rj1ExCgQQQACBbAJN3eveo7RK2Vo+t6Ku+q5sx/NzBBBAAAHzBAiE5s15ThUPnH/eu8SyUlqrpRXtHXfkdDIHI4AAAgiUXOCKzr6PWEqnRNQJLbVVPSUfEANAAAEEEPCVAIHQV9Phr8EMnH/+4VI2mBq07ZaD2m9c7a/RMRoEEEAAgbEKxLue/pQt+lYtOtJaW/2bsZ7HcQgggAAC4RcgEIZ/jsdV4caLlxyid9gpraWjIpG8flyNcBICCCCAgG8Emrv7zhStr7KsnZH46Yf9yTcDYyAIIIAAAiUVIBCWlN+fna/7/NkH7LtjSkpEflSRSH7Vn6NkVAgggAACuQo0dfUuVaI/P6j1oivrFvTlej7HI4AAAgiET4BAGL45nVBFP4/HJx058LzzXpNHKxIdX5lQY5yMAAIIIOA7gebOdZeKqMXW5LJF8cWHvuS7ATIgBBBAAIGiChAIi8rt/876Y9Efi+jeisSqC/0/WkaIAAIIIDAegWWdva1ayfHWpM2R+OIjt4+nDc5BAAEEEAiHAIEwHPOYlyo2NNZ3Ka3eqEgkz8lLgzSCAAIIIOBbgeauvmuVkrcur6k6ybeDZGAIIIAAAgUXIBAWnDgYHQw0NiRFy8zyRMdpwRgxo0QAAQQQmKhAU1fvahE9vbV2fs1E2+J8BBBAAIFgChAIgzlveR31QGP021qrwysSHR/Pa8M0hgACCCDge4FlXX13aNGvtNRWR30/WAaIAAIIIJB3AQJh3kmD1WB/rL5VRP17uTU1olau3Bas0TNaBBBAAIF8CDR3996ntPx1eW31JflojzYQQAABBIIjQCAMzlzlfaT9sYZLRfTi7TI58pZE4sW8d0CDCCCAAAKBEIj/fN0+9guqR4n+2fLa+csCMWgGiQACCCCQFwECYV4Yg9dIfywaE5ELd8pgZG5iNX+LKnhTyIgRQACBvAp8ec0L5VN2bkvZWjpb66qvzmvjNIYAAggg4FsBAqFvp6ZwA+uPRT8ror86KBI5OLHqz4XriZYRQAABBIIkEO/sW2Ar7fwt2m+21FZ1BGnsjBUBBBBAYHwCBMLxuQXmrOej0elzk8kt7oA3NNZ/xtJq9aDICQclkr8NTCEMFAEEEECgKAJNt649WpVZKUuVXRyvObTL7fTSNU/NvGrxW18pyiDoBAEEEECgaAIEwqJRF7+j/qUNvxelVUUi+a9O7y82LjnB1va9SlmROW03/Kz4I6JHBBBAAIEgCDTd0XesDOoerezTV9Qs+LEz5uau3sdEZGpLbfU/B6EGxogAAgggMDYBAuHYnAJ5VH9j9BXRsp89bev+1pZp/6qVpCylTy9vW5V+cecLAQQQQACBkQTiXes+OijqJ0rLImu7/o09Vb0mSra31FTvixoCCCCAQHgECIThmcs9KtnQuORYpe17RWSyFn21EnW+UvL58rbk0O0/IS2dshBAAAEE8iTQ3Ln2VFFWUom6Xiv9RbFlu1b6U6218/87T13QDAIIIIBAiQUIhCWegEJ13780ukKUXL67/UEtslrpSZdUtLe/Xqg+aRcBBBBAIFwC8e+uO8Cean1diz5PiZQ51SlRX19eW/XlcFVKNQgggIC5AgTCkM59f2P0H6LlrZ7yXhWRGUrkSVFWQ3nbDb8IaemUhQACCCAwQQHnPYRqp75FlFSLktdEy8yhJrWsa6mrXjDBLjgdAQQQQMAnAgRCn0xEPoexvvG8+cq2/qKU7OO2q5VsF63FEvXUoNhfPihx49357JO2EEAAAQTCIxDvfvqTtraXi8hRIvKGiOznqW6rpdVR8bqqteGpmEoQQAABcwUIhCGc+w1L65cqpb4pItNFxPmI8JdEVMekMt194PXJp0NYMiUhgAACCBRAIN799Fxb2zUicr6ILhdR+4uWLZaS/4rXVrcXoEuaRAABBBAosgCBsMjgxehuw9L6XyqljtGib5lkTfre7JXfebQY/dIHAggggEB4BeKdz7zblsGztdJnK5HHWmrn/3t4q6UyBBBAwBwBowPhX+5brM2Z6uBX+vYT1xi9XoM/g1SAQHgFeD0J79x6K+N1yIx5pkoETBMw+gLbeQH/p+O+ZNqcB7Levz78DeGFOJBTx6ARMEKA15PwTzOvQ+GfYypEwFQBAiGBMBBrnxfiQEwTg0TAWAECYfinnteh8M8xFSJgqgCBkEAYiLXPC3EgpolBImCsAIEw/FPP61D455gKETBVgEBIIAzE2ueFOBDTxCARMFaAQBj+qed1KPxzTIUImCpAICQQBmLt80IciGlikAgYK0AgDP/U8zoU/jmmQgRMFSAQEggDsfZ5IQ7ENDFIBIwVIBCGf+p5HQr/HFMhAqYKEAgJhIFY+7wQB2KaGCQCxgoQCMM/9bwOhX+OqRABUwUIhATCQKx9XogDMU0MEgFjBQiE4Z96XofCP8dUiICpAgRCAmEg1j4vxIGYJgaJgLECBMLwTz2vQ+GfYypEwFQBAiGBMBBrnxfiQEwTg0TAWAECYfinnteh8M8xFSJgqgCBkEAYiLXPC3EgpolBImCsAIEw/FPP61D455gKETBVgEBIIAzE2ueFOBDTxCARMFaAQBj+qed1KPxzTIUImCpAICQQBmLt80IciGlikAgYK0AgDP/U8zoU/jmmQgRMFSAQEggDsfZ5IQ7ENDFIBIwVIBCGf+p5HQr/HFMhAqYKEAgJhIFY+7wQB2KaGCQCxgoQCMM/9bwOhX+OqRABUwUIhATCQKx9XogDMU0MEgFjBQiE4Z96XofCP8dUiICpAgRCAmEg1j4vxIGYJgaJgLECBMLwTz2vQ+GfYypEwFQBAiGBMBBrnxfiQEwTg0TAWAECYfinnteh8M8xFSJgqgCBsMCB8PWf/Fq2PvInmXbsUbLfJ94v2598Vl69LSVls2fKAed9QtT0qYFee6989z7Z/vdnZcYp/y77/NsRBauFF+KC0dIwAgjkQaAYgfCuP8yQx5+dKke/ZZuc8o7X8jDqwjbxq39Mk4ee2FfmHbhDzn3/K4XtbIytT8SQ16ExInMYAggEToBAGJJA6ATNLT/9vcw864SihkwCYeAe8wwYAQQKIDBaIHSC0d/7p0w4FE0kzBSg5KxNjjcQrv71THlbxXY5/rCtWfvI9YCJGBIIc9XmeAQQCIoAgTAEgfCN/31CXrvrl9mgD/8AACAASURBVDLp4Nmh2HUc7sHDC3FQnlIYJwJmCowUCN0A4qddsmLNUK6B8LU3LPnub2bKi5vL5CNHbCYQFmui6AcBBIwXIBBmCYTuDpi7UjJvjXRvAdXbd6YPsfabJgcsOVnKZu+f/u+x3DI6+OKr8vINd4v9+q7fhg4X7NzQ545jytveIjM/d6Jkft/5+Vhv39RbtsnLN/5Edr7wYrpZNWWS7H9GRKYsfMvQAyNbfZk7hN56BwdeTt9OOlxNmeMerm/vo5NAaPxzFQAI+FpguEDohkF34JPLtJz8L6/L//TtI0+/NFn+6aDt8o+BybJjUKUD0AHTbLn7/+2X/m/3y3t7aObulve/N22x0m06X7P3HZTPve8VmbGPPSazPz43dcz9jtaPGwCdTqdPseWoudvlf3r3GdMto94w6A7aqePjR70u3/+/GelvHTxzUJ4amJxu+6z3vCobXy8bddzOOd45cNqrmDEof10/ZY/bbr3jds4Z6ZZcXofGtJw4CAEEAihAIBwlEGaGQXd+3cA1XBjLDFbZAqG9ddseYdDtwxsKR+rHCYVTj1qQ3h30fo0lEGaGQfd8bzAbS30jBcLhHgvu+yhHajczTBMIA/iMwpARMFRgPIHQGxT/Y+EW+fXaabJlu7WHoBsi//mQbUPhxg0smYHTe+JY32f4wiuT5Jbf7j+mfoebWrefzFDlPXYsu6PZAqHXxRsUx+I1nnEP50cgNPTBTdkIGCBAIBwhELo7Y84acHfN3CDjBLH9T/vw0O6au1vnHOsGJPd72QLh5p/9Lv2hM8O14QS7qUfOH+rHDVTujqLTn7MbuWPt8znfMurW4g1h3rHu+6F3jam+kQKht91ME6+js8s5li9eiMeixDEIIFAqgVxuGXXeI+fs5o22kzfc7ZMj7RC6O2YHz9wpbttjCWHDWY3W72j9ZPbrbWesYxmub29gHS3kZp77jrdsG7r91D0vs61FR2ze6xZV9xjHxtmFdEzdL16HSvXool8EECi0AIFwhECYLbRkhjL3FlE3SKopk9Nhbetv/jTqp4y+esdPh26rzJxsJwBOe99R6R1EN/y5/XiPHc97CDODambfY63v9R8/vMenjLrtegNupmXmLbJO397jh1v0vBAX+qmA9hFAYCIC4wmEwwWc4XbK3PfTjRQIvYEr1/ftuTWPpd+R+ln8ztfSwerVN6z0LbHObqbzletYRguEzm203razjfuw8h3pnc/MYOc1fN/8rcPujjrneHdmCYQTeWRwLgIIBEGAQEggTP85jHwHQnc302l3pHCdGQxHex8hgTAITyeMEQFzBcYTCL0fnJK5M7XfVHuv3avR3kPo/hmKXEPYePrNDHvFCISZwS7buAmE5j4WqRwBBHIXIBCO45ZR5/19M+sWySudPekPZMn3LaPeafS+1y/zllG9fUf6dlbnK9e/bTjaLaO53BI72ofKuEEz226rM363HW+Q9DoQCHN/cHMGAggUT2CkQDhcQHNvr/QGwsxPI/Xe3phth9C705hrIBxPv5mB0Pkbg/m4ZdRpN9NmpFs4s417vLeMjrZieB0q3uOJnhBAoLgCBMJxfKhMtg9H8e50ZXsP4UgfKjOWD3dxP3hmx3MD6UDoftLpRD5Uxll+uXxozngCoWuSudTZISzug5/eEEAgfwLZAqHTU+anjHoD4WgfylLIQDiefocLhBP9UBl3JtxA6Px35qeMet/Tl8u4h5vlbB+GM9z7OwmE+Xu80BICCPhLgECY45+dyNzByvZnGbIFQjV9qozl1snMT+b0fgpp5ieGjrTLlrn0hvuk0Vz/rMZ4AqEzjlz/XAYvxP564mA0CCCwp8BIgTDzUzydcOf8kXrnQ2Uy/9aeNww579dz/jj7Q0/sO/RnGwpxy6h3V87591j6HS4Qer/n/DvXPzvhamb+6YoTj9ws9/153/SPMz/kJZuXc854/uzESB/2w+sQj3oEEAirAIGwwH+YPqwLp9h18UJcbHH6QwCBXARGCoS5tMGx/hbgdcjf88PoEEBg/AIEwhAGwpH+fqK7TEb7e3/jX0qFPZMX4sL60joCCExMwI+BcLTbKt1qM3cpJ6Yw8tl+Gst4a+R1aLxynIcAAn4XIBASCP2+RtPj44U4ENPEIBEwVoBAOPrUEwiNfWhQOAIIBECAQBjCQBiAdZfzEAmEOZNxAgIIFFHAj4GwiOUb0RWvQ0ZMM0UiYKQAgZBAGIiFzwtxIKaJQSJgrACBMPxTz+tQ+OeYChEwVYBASCAMxNrnhTgQ08QgETBWgEAY/qnndSj8c0yFCJgqQCAkEAZi7fNCHIhpYpAIGCtAIAz/1PM6FP45pkIETBUgEBIIA7H2eSEOxDQxSASMFSAQhn/qeR0K/xxTIQKmChAICYSBWPu8EAdimhgkAsYKEAjDP/W8DoV/jqkQAVMFCIQEwkCsfV6IAzFNDBIBYwUIhOGfel6Hwj/HVIiAqQIEQgJhINY+L8SBmCYGiYCxAgTC8E89r0Phn2MqRMBUAQIhgTAQa58X4kBME4NEwFgBAmH4p57XofDPMRUiYKoAgZBAGIi1zwtxIKaJQSJgrACBMPxTz+tQ+OeYChEwVYBASCAMxNrnhTgQ08QgETBWgEAY/qnndSj8c0yFCJgqYHwgNHXig1j3209cY/R6DeKcMWYETBFwAqEptZpcJ69DJs8+tSMQXgEusMM7t1SGAAIIIIAAAggggAACCIwqQCBkgSCAAAIIIIAAAggggAAChgoQCA2deMpGAAEEEEAAAQQQQAABBAiErAEEEEAAAQQQQAABBBBAwFABAqGhE0/ZCCCAAAIIIIAAAggggACBkDWAAAIIIIAAAggggAACCBgqQCA0dOIpGwEEEEAAAQQQQAABBBAgELIGEEAAAQQQQAABBBBAAAFDBQiEhk48ZSOAAAIIIIAAAggggAACBELWAAIIIIAAAggggAACCCBgqACB0NCJp2wEEEAAAQQQQAABBBBAgEDIGkAAAQQQQAABBBBAAAEEDBUgEBo68ZSNAAIIIIAAAggggAACCBAIWQMIIIAAAggggAACCCCAgKECBEJDJ56yEUAAAQQQQAABBBBAAAECIWsAAQQQQAABBBBAAAEEEDBUgEBo6MRTNgIIIIAAAggggAACCCBAIGQNIIAAAggggAACCCCAAAKGChAIDZ14ykYAAQQQQAABBBBAAAEECISsAQQQQAABBBBAAAEEEEDAUAECoaETT9kIIIAAAggggAACCCCAAIGQNYAAAggggAACCCCAAAIIGCpAIDR04ikbAQQQQAABBBBAAAEEECAQsgYQQAABBBBAAAEEEEAAAUMFCISGTjxlI4AAAggggAACCCCAAAIEQtYAAggggAACCCCAAAIIIGCoAIHQ0ImnbAQQQAABBBBAAAEEEECAQMgaQAABBBBAAAEEEEAAAQQMFSAQGjrxlI0AAggggAACCCCAAAIIEAhZA4EXWLhw4bonn3yyOvCFUAACPhBYuHBh75NPPjnfB0NhCAgggAACCCBQBAECYRGQ6aLgAlprXfBO6AABEwSUSr8s8NpgwmRTIwIIIIAAAs6LPrsrrIMQ7AgQCFnGCORJgECYJ0iaQQABBBBAICACzm+BuZgOyGQVapghuABkDRdqcdCucQIheD4wbs4oGAEEEEAAgYkIEAgnoheSc0NwAUggDMlapIzSC4Tg+aD0iIwAAQQQQACBAAkQCAM0WYUaagguAAmEhVoctGucQAieD4ybMwpGAAEEEEBgIgIEwonoheTcEFwAEghDshYpo/QCIXg+KD0iI0AAAQQQQCBAAgTCAE1WoYYaggtAAmGhFgftGicQgucD4+aMghFAAAEEEJiIAIFwInohOTcEF4AEwpCsRcoovUAIng9Kj8gIEEAAAQQQCJAAgTBAk1WooYbgApBAWKjFQbvGCYTg+cC4OaNgBBBAAAEEJiJAIJyIXkjODcEFIIEwJGuRMkovEILng9IjMgIEEEAAAQQCJEAgDNBkFWqoIbgAJBDmcXF0dnbKGWecsVeLDz/8sBx77LF57Imm/CgQgucDP7IyJgQQQAABBHwrQCD07dQUb2AhuAAkEOZxuTiB8Fe/+pVcc801Mm3atHTLjzzyiBx33HEy1lDY2tqaPq+pqSmPI3uzqb/97W9y4YUXyvXXXy+HH354QfowtdEQPB+YOnXUjQACCCCAwLgEShIIM3cgbrvtNqmrq8tawNatW+Xiiy+W448/ftTjx3pc1g7HccCLL76YHpuzk5J5MexcJDc3N+/R6tFHHy133HFH+qLWPdc5r5g7MSG4ACQQjmOtjnTKcIHQOXak7w/XDoEwjxNS5KZC8HxQZDG6QwABBBBAINgCRQ+EzoWis9vgXFzOnj17KASdeeaZWUPhWIPeWI8rxNQ5td16663ppq+88sp0je7XcBfJjoNzvPP/zpcTJgmEOc8MgTBnspFPGCn4OWvbWcPuY9fZpTvttNPk8ccfTzfW0tKSXrveX/i433N3GN1evb8E8v6ipKGhYY+dSW9b7s+2bNmSfpw8+OCD4v2FSh4JjG6KQGj09FM8AggggICBAkUNhCPd5pV5oTnReShVIHT7/cxnPiM/+MEP9trJHC4QencFjzjiCALh+CafQDg+t2HPGikQeh+/8+bNS+/WO7/IcXazMx/b3rXurPHGxkaJx+PpnXDv4/2JJ55I/0LEvT3VOW/BggXpx0Hm84K3TW4ZzeOEZzRFICycLS0jgAACCCDgR4GiBsKx3nLmhiRnB8D5ct+35A16xxxzTPo9RM4OwTe/+c09dijc45yLT6cN53+ZOw/eXQnvLoN7bkdHxx5tupPnPc/d/XB/5lykOhe9bW1t8sADD+z1PiwCYcEeAgTCPNKOJRBmvm/PCW+xWGzo9ufRbhn17oo7gXCk9yZ6w6FTnvfxtXHjRt5DmMc59zZFICwQLM0igAACCCDgU4GiBsKxvK8oc3fPe6Hp7ko47yF0AqFzu5qzG+fcpubevpZIJOSd73xnevfi0UcfTV+guucdcsgh6WPd2zq9uxLO/Li3u61duzb9b3cs7i6I90LZOT7z/YzOz91zM3dFnOO5ZbRgjwICYR5px3rLqPeXI5FIJD0C90NevGs985cszuP25ZdfHrr1NPN2UucXQO5j2P3FjFue+8sb57/5UJk8TrqnKQJhYVxpFQEEEEAAAb8K+C4QZt4K5g2Ip5xyylAIc3cI3QtQ762X7sWkGwAd/JFuS3Xbd491LoadHUf3g17cicsMh26b7u1uzn8vW7ZMzj333KFPPczc4eBDZQr2MCAQ5pF2pEDorN/nnnsufXvn008/vUcgG+2W0czH3mi3iHt3D9vb24duH80sj1tG8zjhGU0RCAtna2rLCxcuXPfkk09Wm1o/dYssXLiw98knn5yPBQII+FOgqIFwLLeMZl4sTiQQej+NNPN2M/fDMJwdh8rKyvRta+6ngno/yMLdkZgzZ87QB1l4p/KEE05I73S4t75lTrP7c+fDZbLtkPIpo+N+kBAIx02394lj+bMT3h155z2Eztp23jfr/iLFu9aH2+Xv7e1NP24yb6327t7//ve/3+NDbLxhkVtG8zjhBMLCYdKyK8BztOFrgV80Gb4AKN/3AkUNhCP9Vt/7fUfMeytYvgKhN2g6Ow/OlxsARwtq7q7IV7/6VfnKV74y9CEamTObuRvo/Dwz4BEIC/Z44GIjj7TD/WH64T7N07vj/aMf/Ui+853vDH1CrnsbqPPeXfex49z+6bSzfPlycR6D3ttL3T/HktnPcL+ccd6/6L0Ndax/GzGPRKFuigu3UE9vqYrjObpU8j7pl+cVn0wEw0BgBIGiBkJnDJl/diLzls1c3kPoDY7D3TLq7kJMnz49faupe1to5q1v3vciZoY27/sCM3dO3HacYPnFL35x6FMUvdbe9giEBXsccrFRMFoaNk2ACzfTZrwo9fIcXRRm/3bC84p/54aRIeAIFD0QOp1m+8P0uXzK6GjvIRzpU0a9fz/N2cFw3nPo3J7mvDfK+XLCo/thFt5bPt1A6+5muD8b7hNF3eXlvV1uzZo16W9n/sF691huGR33g5KLjXHTcSICewpw4caKKIAAz9EFQA1SkzyvBGm2GKuJAiUJhCZC+7nmEDxRc7Hh5wXG2AIlEILng0B5GzJYnqMNmeiRyuR5xfAFQPm+FyAQ+n6KCj/AEDxRc7FR+GVCD4YIhOD5wJCZClSZPEcHarryP1ieV/JvSosI5FOAQJhPzYC2FYInai42Arr2GLb/BELwfOA/VEbEc7Tha4DnFcMXAOX7XoBA6PspKvwAQ/BEzcVG4ZcJPRgiEILnA0NmKlBl8hwdqOnK/2B5Xsm/KS0ikE8BAmE+NQPaVgieqLnYCOjaY9j+EwjB84H/UBkRz9GGrwGeVwxfAJTvewECoe+nqPADDMETNRcbhV8m9GCIQAieDwyZqUCVyXN0oKYr/4PleSX/prSIQD4FCIT51AxoWyF4ouZiI6Brj2H7TyAEzwf+Q2VEgX2Odv9M1Xvf+970n6aaNm3a0Gy6f0KrpaVlxD8nNdLUj/XPTGX+beagLiWeV4I6c4zbFAECoSkzPUqdQX+injVr1qZNmzYdwFQigMDEBWbNmvXypk2bZk28JVpAYEgg0IHwwgsvlFmzZsny5cvF+fvGzpcb1Jy/WUwgzL7Sg36dkb1CjkAg2AIEwmDPX15GH4Inai0izlrmCwEEJi7A42nihrSwp0CgA2E8HpeZM2fK8ccfL3V1denKnB2+yy+/PP3vQw45hB3CLCs+BNcZPKYRCLWAYncl1PM7puJCsCPABeyYZpqDEBiTAI+nMTFxUA4CgQ+Ep59+utx///1Dt40+8sgj8rOf/WyIoKmpKf1v9zZS598NDQ173GbqnHPcccelj3N+1tvbmw6Sxx57bDpgOmHzwQcfTP/84YcfTn+fW0ZzWGUcigAC4xZI7xCyuzJuv7CcGPQ1EPTxh2UdUUc4BHg8hWMe/VRF4AOhc7vosmXLxNktdG4bbW1tlQ996ENDodAJdk7gc77vhMLp06fLxRdfPLR7mPmeQTc4OsHvne98Z/pYdwfSed+ic5vq9ddfL/PmzdvjZ36a1FzGwg5hLloci0DxBQiExTf3Y49BvwAM+vj9uCYYk7kCPJ7MnftCVR74QNjW1ibt7e3pEHjEEUdIY2NjOhyuWbMmbeYEQicMuv92/t8bEJ944omhsDh79uyhHUHnvDlz5qTbcvpwfuZ8OW0tWLBATjnlFAJhoVYl7SKAwJAAgZDF4AgE/QIw6ONnFSLgJwEeT36ajXCMJRSB8IEHHpC1a9emQ+Gtt96avh306quvTs/QF7/4xb2CmzcQOuf+6le/GrqF1L0V9Mwzz0yf795K6p1u58Nqhms3iEuCHcIgzhpjNkmAQGjSbI9ca9AvAIM+flYhAn4S4PHkp9kIx1hCEQg3btyY3snzfsCMd1cwnzuE7rTzHsJwPACoAgG/CxAI/T5DxRlf0C8Agz7+4swyvSAwNgEeT2Nz4qixC4QiELrvC3z00UfljjvuGHovocMw1vcQOjuCzofHuB8wM9x7CN33GzrHcsvo2BcZRyKAwPgFCITjtwvTmUG/AAz6+MO0lqgl+AI8noI/h36rIBSB0Hl/n/NhMN5bPzN3BUf7lFH3j9w//vjj4nxqqfPlvBdxuE8Zdf+2ITuEflvKjAeBcAoQCMM5r7lWFfQLwKCPP9f54ngECinA46mQuma2HdhAaOZ05b9q3kOYf1NaRCCfAgTCfGoGt62gXwAGffzBXTmMPIwCPJ7COKulrYlAWFr/kvdOICz5FDAABEYVIBCyQByBoF8ABn38rEIE/CTA48lPsxGOsRAIwzGP466CQDhuOk5EoCgCBMKiMPu+k6BfAAZ9/L5fIAzQKAEeT0ZNd1GKJRAWhdm/nRAI/Ts3jAwBR4BAyDpgh5A1gAACXgECIesh3wIEwnyLBqw9AmHAJozhGidAIDRuyoctOOgXgEEfP6sQAT8J8Hjy02yEYywEwnDM47irIBCOm44TESiKAIGwKMy+7yToF4BBH7/vFwgDNEqAx5NR012UYgmERWH2bycEQv/ODSNDwBEgELIOHIGgXwAGffysQgT8JMDjyU+zEY6xEAjDMY/jroJAOG46TkSgKAIEwqIw+76ToF8ABn38vl8gDNAoAR5PRk13UYolEBaF2b+dEAj9OzeMDAF2CFkDrkDQLwCDPn5WIgJ+EuDx5KfZCMFYZs2atWnTpk0HhKAUShinwKxZs17etGnTrHGezmkIIFBgAXYICwwckOaDfgEY9PEHZJkwTEMEeDwZMtFFLJM1VURsn3bFGvDpxDAsBNghZA2wQ8gaQACBTAEu3FgT+RZgTeVbNHjtsQaCN2eM2CABdggNmuxRSvX7E/V8EVkX4PGzyhAIkoDfnw+CZMlYdwmwplgJrAHWAAI+FiAQ+nhyijg0Pz9RR0TkRyJyn4hcLSKPDuOS9/FvuCD6VmXLg1rL0sr2ZGoic7FhaTSilNwlIvt621Ei9eWJ5I0Tads5tz/W8ICIPmF3Oxu0JcdWrkw+NVK7A7HoeVqkceqUwQ/NvGb1S8Mdt6tNkYpEx0fdn6e/p+WJqVN3tmzbXvYzJdI20vj7lzZcK0qO8J4/Wp3ZvF+5+NwDnT5F5GhPO5u1llOyzY877or2js9P1NqQ8/P+eDLEjTJHFmBNsTpYA6wBBHwsUPRAuPviuF1bcoJz0TrMhd7jo12opi+Ax3CxOdoFrS7TK7Nd7Od6EZntInuEUJC11mwXynlaW35/on5QRJxg+JqI/FFEviEid3tqz/v4d8/XrVrLmdkCR7Y5GK6tXWtYfyDbWh+t7TcfO2q9G7x2r8MV2UJhtjGP9vgZS7Aa7vxsfY6pVq1+4fa/u9ZrRwuFQ0ae8yYyDkPOzfvjyRA3yiQQsgZYA6wBBAIpUPRA6L1gdcSULY+IVre7F3n5uFBOh8ZRdjiyXdAW4iJy2FCwa2fnoNFCQT6DySgr1O8XgP8iIv8rIlN21/CqiLwoIleJSEe225F2GermqVPsTw63I7Z7zV20u+3HtSWfUbb8YPduVDq0b99edooWWbXrGPWgE8DcsC6i14uow5wQpmyVGNqt0+o6Z60NN4eZvxjJ3OXbadsfn2RZq91dOO8vKNxfiGitv62UDP1yxZ1fp20pk6ecX7jsfrztMW73lxdv1qnWu2N2dy3HukNoW/Lz9GNYpDItI1Lv/L9r5fz3lCmDd3l299K7evtMHXxs1/fSfR8nIjERaXJ2ZN/8WXo3cM/jM4Kd12XPWneNRWt1lCjtzG26HUvJvDfncdcx+dilDeSzPxduIZs2X5fj99cYX+OFZHCsgZBMJGWEUyBrIMx2Mb3nzpd60A04b+wsm+W5UExfjDkXqW9+Tz2oRH8/89Y1J4y9sa3sGOei0Ll43+NiffcF9tAFsaVjzk7f7gvyY92LPmdHZ6w7hOmL2Ddv50uPU4k60XsRuee4JX1L3j6TBjdlXNA6F90fdMKDM35Pm+lAsft7e+w4Ze7+jRQKRg4mebugLcYT9fTdt0y6/+/cPpnL9z4oIuUZD8NtIvJDETl9VxYZ/mu0NeydAzeIOCHM1vK0UpKer91rJP3vobCi1S927zQP/ULDu3Ptbdd7vrvb6P3Fh/NYEdHzK1euesj9ZYQzhl1hRo6YOmVn7bbtlhN8ZeoUu2Hb9kldzq2bu7LpyLuM3iDqHbdS+k/O484bCJ2A6x1Tuo83b0N9E1ar67y3jLpjdM737pLvOn/XLafex6L7CyE38DqB0BuunUC4+/GX3j3dHcTfHGtmIPTcLeC07YY7dy522ZX9THafN9wxY72tNZwvAcNWVYznA4M4KTXbL+0QMkKA5xUjppkigyowoUCYuZO2O9Ac5F5oursb3gvF3Rd46Vvadu2m7Pk+JS/kcLuJSuQK9yJU7wqEb16Qe3YFM8LVHhe03ltGlVJfcC6unZ2c4S4i3Ytf94LSvWjOvJjea9dl9wWou4OhRd/nBgw3FHgv/p2dluFCgTeYOOcV6ILWeaIu5NcvROTdTmAXkS27/9/7b/d7I/2/c2yriLzNM0gnDDqho1lEnhkuEGbuGO0+d6/32HnWytAtvN4wtXtXaeg9dxm/kHjEWZNOEBl2zWl13e65z3wP4V7vf/Oe79lpaxQlV4rWi0XUq0qp72htX6u1askcV+YEZt7G7I7b/UXM0Br2hCX3FzTeQOe2O9x7CHevz3Rt3t02NwS6gcx9LhgKykpfqrRqch9X3gDtfUy6fY+0a595+3jmjmhmIHTaG27XtJCLP4Btc+EWwEnz+ZBZUz6foCIMjzVQBGS6QGC8AiMGwrFcTGfeCudegKoy+1w9aN3r3ka2e3DeW7Z2BcJBdcFoHzyRebHnXpCm21NyhBsIhy7IPbsFY90h9NxCNnSB7r34zHy/oXur307bPs25pc+78+BcTO+u/Y7MDyMZ7rZBbyAc2tnwfECIc4GdGQgLdEHr9yfq94pIj4jst/t9hL8Rka+IyO92r61Rx59tl9tpY4/3sr4Z4tK7gjkFwt2/XPA+IDPnPvO26KFddq1u9O6+7b4d8wda1N2W6Gd23/64v4h+m3P76+5d571uGXUfJ+5OoHtLciECobtuPc8X6cDt/rKn4IEw44NuHHen3m3bJjW/ubu6a4dw6Jc7GcewQ7jXy4ffnw/G+3rHeaUTYE2Vzt4vPbMG/DITjAOBYQQmtEOYJRDuFYo8YSYdCC1b/n975wNkRXXn+1/fmYEZhn8DIuAfHDAYJCoiVowiGjZqEk0ltVoaQaWe5WbzXkWTl8qGl2xKFmETrZQp92V9qZdNUdYjColG9+lGX/yTMv5BY2JAQlZRokyIigjDnxmGAQZuv/qduafn3J6+9/7u9Ln3dp/+3qpU5M7p0+d8OeiRlwAAIABJREFUzume/szvd04vjkoZ1TsYmulofGwthDCUwsdrjYbWkA2lBQa7TdoUwoi0wkcoLAVG6qKxtqroodfCA23Sb9TPE9H5RPQOES0v7DhqTucRC2FhDB7maBmvuYuK6Kq/PxTSR6NSRov/IOFfz3NbHZMnFT2MknrzDxbmekI6TqdzurFH9N8H197lHiPypvs+/bdCO76v0ywrbSpTqGtYquuwlNEYEUJ1jXKUf2itpBJUM/pfNmW0cO6iCOFgyraZMvrPQYppiU1lzHTfoTWL3gdmhNCUbbOMhevHtV8uSb8fuMY7C/3BnMrCKJfvI+YA5gAIJJhALCGslDKqH1zN1M+CBCoh1A/NpTaVMdNLzQfscMponAghp6dxCh1HOqLSPiumjIYepsNpePphuLABSNEaQp1ia6wxVA/TphSYMlHqodfCA23Sb9T3E9GLRPS/S1xLsdofioYPrvkcWgP7QYVNZYKU0eCPFnrtXblNZQZfa7GByHstkJbBVypsJvIPkp97dSiNebhk6shcxC69RSmxok1lYghhaMOYYJMWvfa34qYyEUI4tAZ48FUaEXXoaVCUdmusN+YU4weJ6DwVLRxcD3lxeH2wWabU6zcSfO+uZdNiXU+1bBjqTi0BzKnUDp21hmMOWEOJikDAPoGKQljplNVsKsMPekPlvReNzSSCXQr5gdjcdVOwqczQGq4RpIyGNowJHjALsqYeIstuKhPxMB3aUEc9oGvJC72LLuhr6ME+kIJg4xIiJSaDqXCDuyZafKBN+4067e2vdJnh5yBQTwK4nupJOxvnwpzKxjiX6yXmAOYACCSYQGwhNPtm+91jCebmWtPSfqNOe/tdm0/oT7oJ4HpK9/glsfWYU0kclfq2CXOgvrxxNhCoikAsIayUrlZVS1C4kQTSfqNOe/sbOfY4NwiECeB6wpywTQBzyjbR9NWHOZC+MUOLM0QglhBmiJPrXU37jTrt7Xd9fqF/6SKA6yld45WG1mJOpWGUattGzIHa8kXtIBCLAIQwFj5nDk77jTrt7XdmIqEjThDA9eTEMCaqE5hTiRqOhjQGc6Ah2HFSEJARgBDKOLleKu036rS33/X5hf6liwCup3SNVxpaizmVhlGqbRsxB2rLF7WDQCwCEMJY+Jw5OO036rS335mJhI44QQDXkxPDmKhOYE4lajga0hjMgYZgx0lBQEYAQijj5HqptN+o095+1+cX+pcuArie0jVeaWgt5lQaRqm2bcQcqC1f1A4CsQhACGPhc+bgtN+o095+ZyYSOuIEAVxPTgxj/TqxYIH/jdZW+rcNG7zeEmfFnKrfcCT1TJgDSR0ZtAsEiAhCiGnABNJ+o057+zELQSBJBHA9JWk0UtCWBQv8fiJqIqIftLbS9yLEMNacWvFA11rK0axVSzovluC4fX3XfM+nx4j85auWzlwvOQZlak4g1hyoeetwAhDIOAEIYcYnQKH7ab9Rp739mIUgkCQCuJ6SNBopaMuCBf7XiOguIsoV/sB4T0gMY82pFeu7XmQMUiFMAbIsNjHWHMgiMPQZBOpJAEJYT9rJPVfab9Rpb39yZwZalkUCuJ6yOOox+7xggd9NRJMK1RwNiWFPISMp8iwr1m1fQuQtz3m5q1YumfG+Wej2ddu/5ZF35+B3/p1E3jXk0W7y6Twi/xaf6LShn3O6i/9t8rwndYSQfO+z5NEFRDRZ/c+jDRDLmIM9ssNxXxkZNxwFAnUhACGsC+bEnyTtN+q0tz/xEwQNzBQBXE+C4T7vPH+l59E/CYpmuciA59Fjr77qXTNSIWR4OkKYo9x1eT//LAuhljoWxtVLZ3J0knRqqU90W0gIr/Q9utzz/TlE3r1E/q1IJa37tOT7ikufO4hopUsdQl+yTQBCmO3x171P+wNg2tuPWQgCSSKA60kwGiyEXGzjRg8PhUS0YIG/pxCFYyyiCGFx9C+A3s3ytnpJ5yb9zTAh9OmVVTd0LtM/L6rHow0RQnhBzsstPk75qVhbKJjctSni0n2F/xDEz8+49mszV1BrAwhACBsAPYGnTPuNOu3tT+CUQJMyTADXk2DwzzvPVw+FEEIlg7yGkNM6eWMZnj9VrSEslzIaGSEsCOHK9TtOUhFDXrzo5Rbn8/m7ePMZCKFgAte/iEv3FQhh/ecPzlhjAhDCGgNOSfVpv1Gnvf0pmSZoZkYI4HoSDDSEcAhS3F1G4wqhT/59TV7TWp1OCiEUTOD6F3HpvgIhrP/8wRlrTABCWGPAKak+7TfqtLc/JdMEzcwIAVxPgoGGEBYJYU3fQ6jWBnp0U7CpjJEyOvQz4ldf/IqIPublcrf5+fwafu2E3lQGKaOCSV3bIi7dVyCEtZ0rqL0BBCCEDYCewFOm/Uad9vYncEqgSRkmgOtJMPhYQyiANFQEc6oqXE4WdmkOQAidnKLZ7hSEMNvjr3uf9ht12tuPWQgCSSKA60kwGogQCiBBCKuC5Hhhl+4rEELHJ2sWuwchzOKoD+9z2m/UaW8/ZiEIJIkArifBaCBCKIAEIawKkuOFXbqvQAgdn6xZ7B4LIe/Q9cksdh59Dgj8hogWp5iHS79oUjwMaLojBHA9CQYSQiiABCGsCpLjhV26r0AIHZ+sWeweCyE+IJB2Ai79okn7WKD96SeA60kwhhBCASQIYVWQHC/s0n0FQuj4ZM1i9yCEWRx19/rs0i8a90YHPUobAVxPghHDGkIBJAhhVZAcL+zSfQVC6PhkzWL3IIRZHHX3+uzSLxr3Rgc9ShsBXE+CEYMQCiBBCKuC5Hhhl+4rEELHJ2sWuwchzOKou9dnl37RuDc66FHaCOB6EowYhFAACUJYFSTHC7t0X4EQOj5Zs9g9CGEWR929Prv0i8a90UGP0kYA15NgxLCGUAAJQlgVJMcLu3RfgRA6Plmz2D0IYRZH3b0+u/SLxr3RQY/SRgDXk2DEECEUQIIQVgXJ8cIu3VcghI5P1ix2D0KYxVF3r88u/aJxb3TQo7QRwPUkGDFECAWQIIRVQXK8sEv3FQih45M1i92DEGZx1N3rs0u/aNwbHfQobQRwPQlGDEIogAQhrAqS44Vduq9ACB2frFnsHoQwi6PuXp9H/Itm5fodJ+X9/LM++fetXjrzrjhoVjzQtZZyNGvVks6LuZ7b123/lkfenbpOn/xvlzvH7eu75ns+PUbkL1+1dOb6qLasWLd9CZG3hojajJ+/lfNyi1cumfF+qfZL6o46VvXB9+auuqFzmepTqI3cHt+n/7L6hpmfjsMOxyaKwIivp0T1osaNgRBWBRhzqipcThZ2aQ5ACJ2cotnuFIQw2+PvSu9H/IumVkKo5NCjK32PLl+9pHNTQaSe9sm/O454FoTwXiL/Vi2NK9Z3vUg+TSknhVHHVRp81Waif81R7jqWTUNGici/JTj/A11rfc9/PU6/KrUFP68rgRFfT3VtZYNPhjWEVQ0A5lRVuJws7NIcgBA6OUWz3SkIYbbH35Xel/1FUxCZ5Tkvd1U4ihYWwqKonkcbdLSvIF0LC8C6A9EbigL2E9Gb5FEfC1RU1HFQCv05LFJaEIloMhGp+rhuHSEk3/sseXRB4eeTqdCWKLEzo3Y5r+k5PjcRnVFo61vNHl1/zKefFb5T0cQ85R8kn4b1x5wQLLVa9LQcUt5/gDzvn00hDYujK5Mqw/1w6cGtZsMIIawKLeZUVbicLOzSHIAQOjlFs90pCGG2x9+V3lsRQo/oL0Seir4FYuXTK36O7vHIP2PVkpk/NwWSPO9JzycV9WvymtYqEfNoN/n+/9L1RKV+6jrIp1c4FbMQTbzAy+Vu8/P5NZwyWhBCFWFkidT1DQ7YYBt13WabPMr9gUusWnra06Yomsf5nrc1qj9mhK9Q5+NE/vfNPkQJaamyrkyuDPbDpQe3mg0fhLAqtJhTVeFysnDJOeD7Pv8MnzoQ8DwPz/114JzGU2Bi2B01jsx80m6VqE1IYNhcDq/hK9QTRPf430WCx6pF3s069TK8JtCMEvJ6QKVm5P2Djhbq8j7RbeXWAkatwyPyvq9EUP9/IULIbTlO+alB5LCCELLUBcI5GCXs5/TOKJEM98cUwkIbf+Z7dD2nvOoxKJV6ynX5vv9LpI0KZ2uyiyXh4ew3RLQ4yZiwhrCq0YEQVoXLycIQwgQMK4QwAYOQ0CZACO0ODH7p2eUprc1KhLAgeMOEsBDxW0M+/SKXy31Lp4OWEsKSKaOD6aU3m5FAjr4VJGvEQmgKpk90Gm9ko4R1MIKpNqkxhbDw38P6AyGUTjfnyyXhPpaENpQdaEQIq7oOEj+eVfUGhUdCoK5C+MjLe2hzVx/N62ynqy88IWjvmmc+oJ17j9IXLphMZ5/WXrEfvf3H6b5f76L5s9pp0dwJkeV37jtK657/kK44t6Oozi1/6aOnXttHSy85kaZ3jKp4rlL1VDywUEByPIRQSjN75SCEdsccv/Ts8pTWZkUIS6WMkuf/P47c+R59vpC+ucYnf1WplFFed1huU5kgvbRyyugFkgihuanMcf/4Mh3lLPz3inCEsCCEw/qDlFHpdHO+XBLuY0loQyUhXMkFNm701P/jU5ZA4scT41dzAnUXwrfe76cJ7c1046Un0ri2JmJhWvvsLho45tdFCF94/QC9tLWHli2eKhJCFsjHX91LV50/SSSr4RGDENZ8Djt9Agih3eHFLz27PKW1jZi7ZFOZUArmW0R0iHzawuv/jLTUYFOZYCOawZ1Gb9KdMF87Id1UpoQQlnztRKje14hoDL9SQ8srb2AT3mTG7I8JXEktr0csvHKC/ztyl9PBV2FEbtojHUCUSxSBEV9PFnuRhDZUEkK1sQSEUDTqWE4hwuR0oZJp4M//535fi9PY1qYgIveR6W1K4A4dySswl82bqKJ0Wuz4+5YmL1LuOEK468AAjWr26MoFk5SQsaBteqePBo7ng2gef/fM5v2q/hlTRtMtl01T/82RxB27j9D4MU3q3x+fPU6dm6Xt0Ve6aeC4T2NG55Ts8SccITTbqOvVUUsuH45c6khkd+8ATR7XQnNPHUObuw6quie2N9N1C6coLvxz/nCZmz81eG79PX9n9s08n24DIoROX2OxOgchjIVv2MGJf4ix293E1AbuNRgK6e6h5m6kNWgGqqw/gSRcT0loQyUhRISw/nMTZ3SQQCkh3H1ggPb1HVOSpmXu2oUn0EMb9gQpnPp7liOOAuoPyxAfy58zTmpTMseSN23iKNr63iElhPzREbnOE1uVWJ0yeRRNmdASRPb29AwoAbz0rAnEgmqKnz4HC2dUyqgZIfzzzv6gTj4vi+5Fc8YXpaGaEcL9fcfouT8dCGT37Q8Oq/aePq1VCbE+37b3++nd7qNKDl/bfjA4ho9n+TWlkdNeL/nYRDz3O3gN2egSJoYNikN1JP4hxm53E1MbuNdoKKKihOapyr3So0ZNQrW1J5CE6ykJbYAQ1n6u4QwgQKWEkCNjOhoXFR3U6KKihFrWWAY5dZSljUXyb86ZQE9u2qeE0JQmlklTIrluFlFzDaHZHn1ujhJy3bxWMLyG0BTCl7f2BHLLx7KcdrQ3F61vDAthON3UjCJyn6+Y30G/fbNXSSyvkwyLIq+hND8cJfy7y6fjuR/XXCQBTAy7EyPxDzF2u5uY2sA9MUOBhjhAIAnXUxLaACF0YDKjC8knUEoI9SYuOq2znHyFe2lG71gEObL2wf6jSt50dG0kQhi1SUyptXs2hVAzYDHWkUrmU04IdXTVZIOU0eRfD41qIYTQLvnEP8TY7W5iagP3xAwFGuIAgSRcT0loQyUhxBpCByY7utB4An/sOujr1E1ujU7R5JRR/nD0S+/YybuDPvHqPmpvzQWppFEbt2gh5CgfR+P2HzxGM6e20oVzxgdCyHVXmzLKqZ6zp7epNvE5OF2TN4H5v6/sKRshHEnKqNkvMzXWTA0tlzKqU07NdNhrLpqC5/7GT/lEtgATw+6wJP4hxm53E1MbuCdmKNAQBwiIr6c0vlDa1l/I8doJB2Y6upAIAj2Hjvl6YxRzE5dzZ44t2kil2k1lzPWHWo5OGN9StN6vVpvKMFi9Ac30SaOUvJbbVIbL641o2kY1qU1l/vB2b7BDqblJzbSOUWqnVF4TaDLCpjKJmM6pbQSE0O7QiR+k7J4287WBe+anAABYJCC+niCE2GXU4rxDVRklkMb7SFqHytYfxNLaf7S7NAEIod3ZIX6QsnvazNcG7pmfAgBgkYD4enr4pd1+eOMCbofeEt3c9a9c+6I2WAiXL7WboFlO8iJoWw9E553nY5dRi5MOVWWXAISwfmNv6/5XvxbjTPUiACG0S1r8IGX3tJmvDdwzPwUAwCIB8fWkH+TMnfj0RhDS9uhj9U55pY6TCKHkRdC2HoiQMiodYZQDgfIEIIT1myG27n/1azHOVC8CEEK7pMUPUnZPm/nawD3zUwAALBIQX0/lhFC/2JnbpV/CbL7UWW8Vz5sicJQxaut4szxvmd53OK/eq9X14eFgO3pdP28WoV9izWVLvch5/JhmK7/3ECG0OONQFQiki4DaUIqIVJZA2j+zZ8/evm3bts609wPtHzmB2bNnd1n5xTjyJjh3pPhByrmeN7BDb/yEmDs+IAAClgic+SX1sFPxU0oIzR3+zC3Zf7etN3j3li6jxS0cIQxHDlkwtRBuffcQzTlljHoRdXj3Pb0z36EjedX+8Iucz+kcK+pbpc5DCCsRws9BwFkCTgkhESFI6+xUlXXM8zzZL31ZdSjFF1Xhr0aAUUcCLIRzrnq1jmfEqUDAXQJbHz+f4gqhGR3UpDhKOGVCCz2zeX9RNLBUyqj5kuazT2svEj8WQTN6qNcs8nbs5lbt4Rc585b1EEJ35y56BgJ1IgAhrBNonKY+BCCE9jlDCO0zrVgjhLAiIhQAATEBW0LY0d6s3tUV9dHbr7PIXbvwBOIXR4cjhOWE8MENu2lPz4Dakp3f77XpnT6VSmoKIX/P8mm+yPmKcztsCiHeQyieVSgIAk4RgBA6NZzoDITQ/hyAENpnWrFGCGFFRCgAAmICNoSQhW/bzn4lbPzhtX0XzRlPb73fT2ec1Ea88YxO9SwlhOVSRlkItXCaqaRhITRFUb+HzGKEEEIonlUoCAJOEYAQOjWc6AyE0P4cgBDaZ1qxRghhRUQoAAJiAjaEkE8WtamM+XJlcxMZLrtz71HilE5OD9WfUpvKsPhx9I8/Z54yht7be4SWXnKiiho++ko38Yugr1wwKdhkxnyR8yUfm2hrDSGEUDyrUBAEnCIAIXRqONEZCKH9OQAhtM+0Yo0QwoqIUAAExARGIoTiyhNQ0Na269hUJgGDiSaAQGMIQAgbwx1nrREBCKF9sBBC+0wr1gghrIgIBUBATABCKEOF9xDKOKEUCDhIAELo4KBmuUsQQvujDyG0z7RijRDCiohQAATEBCCEMlSIEMo4oRQIOEgAQujgoGa5SxBC+6MPIbTPtGKNEMKKiFAABMQEqhFCcaXVF0z8vRRCWP2g4ggQcIQAhNCRgUQ3BglACO3PhMQ/xNjvcuNrTKIQ7jzYTOu2jKcrTu+js088MgxS75Ec3bd5AnUfahr2s3lTj9DVZ/ZWBFvpHPzztZvH06GB3LC6LpvVR4tm9Fc8BxfY8uFoeurtdlp6dg9NH3uMXtjRRs+8M7Txx4wJA3TL/ANl61qzaQJ1tOZF/dIVrf3jBJo/7TDtP5wLzteS8+kLcw4qptyO3X3NVdUp6nDGC0EIZRMAQijjhFIg4CABCKGDg5rlLkEI7Y8+hNA+04o1JlEIWaIe3zaWrpo9KC/lPmHhqtjhERRgedr0QSvdPO8AjRudr6oGPvalv7bRsnk96jiWzItO7VdCqaVz9qSBkmKm5feUccfE8qZl78JT+4vE+pE3xtG2vS2qLSynWhorMa6qwxkvDCGUTQCsIZRxQikQcJAAhLBGg/rmm2/SF7/4RfrmN79JN9xwg/WzrF69mlasWBFZ76pVq+j2228f8Tn7+/vp61//Oi1atKgmbR9xwwQHQggFkKosAiGsEpiN4pWEkIXrxR1tdOPZPZEyxD9/dOtYGsh7NHnMcSVNr+0aTb97r001b2LrcRUB4yjXjgMt6jsdxQtH+vj4a8/spYfeGKeif7q+p99pp827RqtjwxG1sBDqyN+Yljz1HMkp+XliW3twbv5eyxlHIReddoh++24btbfkgzLhCGBYCM0+6/pYsMw+cjuvnN0XRBn53x8/+XBZ0Y2q9+W/tqm+6+jetu5RAQvNx5RUZvrg6+PUublN5ifMiv/NorvsnPIRShvzLCt1VBDCcUT090T0gxrzSPy9FEJY4xmA6kEguQQghDUamwceeIA2b96sar/jjjuorW3wOazcp7u7WwkYy9zChQsrFQ9+znLInzgSaJ4MQihGn4mCiX+IcXEU4ghhOHqlUxuntB+j57rGBOmJHJnadzinxNBM1WSZ4s/pHQNF3/N3OkLIKY86Osffc6oop0LqlM0oIeQonI668flYLs868Qjp9vLxH5k0oKJnphBy+7it7/Y2F0UDTSE8OJAbFnXjvrHs6dRQbqdOeeX26wghCxrXr+XWTG8Np7BqZtfN7VV95gihGfHrnDAwjAWft5zAm+PAZfmcD70+jq6d2ztMHl2c6/XoUwkhZBH8RyL6BhEdJ6LKv6XjNTbx91IIYbwBxtEgkGICEMIaDB6L3a233qr+x7ImFTwIYfzBQIQwPsNwDYl/iLHf5cbXWEoIw2vduKVmNEwLRdRaPzNNMhw50z2OihLqKJgphGZETB9rRglLCaFOy9THmNE7jgCGhVCnZEalh5rfdR1oCSKium7mcs3cgyoSyfJpti/MQh9jrlHk9kxszZetV7dP9yMqOsh18/ne6h41bF1iVL9YkO/fMp4untFfMTW38TM1HS0ICaEWwa/zuvOCDH6biP5njXuT+Hsp1hDWeAagehBILgEIYQ3GZsOGDfTTn/6U7rnnHrr77rvVGXT0jlNJv/rVr9IPf/hD+uhHP0paApcvX04PPvgg/fjHP1blX3zxRRUl1KmnHG2cN28e/fznP1fHmZ+oCCF/19vbS0899RR94hOfUG3ZuHEjXXzxxcGh999/f5ASap7n+uuvV2U+97nPBT83U1TNlNSo80iioTXArqqEENonm/iHGPtdbnyNcSKEpTZmiRLCqE1RtHSagsYbyYSFUEcXo2hVEkKdhjl3ylG6fFZfEFWLI4TmJjHhNoVFj39uRgjD5XXUzowwmqmeUWsIzVTb8CY6UUIYjgzqNkAI7V9/BSEcX4gIahEcVThTNxGdYP+sw2pM/L0UEcI6zAKcAgSSSSBtQsh/2Cu3U53v+3zLbeyHJWnWrFlKpli0Vq5cSffeey9NnjxZ/TtKCFkY58yZU5QyGo4Ychoqiyb/P9elP6WEkMVUl9VRS24LCyX/jI/jn48ZM6ZozSD/jMVRCyOXeeGFF5RU8sdcX8h1mOdpLHkIYS34J/4hphadbnSdcYQwKmWU+3PG5KPD0iT1Zib8c72xCv+3TgfldYc6zdQUQk651N/rNElzgxWJEGqB23OoSUXhLu08NOIIIaeMmimpOsX0wpP76dWdrWqtJX90aqsphH/e21KUSss/4+P5w+mgUfXqNZU6ZdRM8YzafTScMqrrj9p5FSmj9q++ghA+TESfJ6LBRbP1//yGiBbX/7TyMyJCKGeFkiDgGIE0CeHJRMT3018Q0fdKiGHDhZDF6zvf+Q5997vfVdKm1+PddNNNQcRPKoSmtHFdpVJKSwkhz9VS6wpNudyzZ0+RpJprCK+++molgLr9XGe5CGijrw9ECO2PAITQPtOKNVYSwkoVmBExnVLK4hOOikVtKmMeO23sMbUxjV7fx3LU1uKrtXzVbipj7uRpRtM4zZLTUqe2Hw/W4+k1hNKUUd7ApdSmMub6QJ02qstOH3dMpXGaZZhtOP1Vb9AT3qxmZ2+zWpNpvkai1KYyOg2U69f16XE06y2VXlppzPHz0gQqRAj3EtHQn1gzDBJCmOHBR9ezTiBNQshj9SwRLSIi3qWNw1VhMWy4ELJo3XjjjcPm1Ze//GUVYduxY4c4QmhG5jgNM44QasnTKam8A+r+/ftVhHDr1q1BtFBHHnWU8zOf+YyKWj755JNFffr0pz+tjv3Rj36kvre1oU3cCxJCGJfg8OMhhPaZVqwxrhBWPAEK1J2A9B2DeO2E/aFJyBpC+x2zXCOE0DJQVAcC6SGQNiH8eEEKxxDRUSLiZ1VTDBsqhOFooJ4GZpoof9eICGE42mj+u9oIoTm9be9wGvfSgRDGJQghtE9wBDVCCEcALeGHSNYGIjpYm0FMyC6jtemcxVohhBZhoioQSBcBFsJPEtFzKWr2zZzQY7SXxZA/a4no7xq5hjC8XlC30UzB1BE3TsHkyJter8ebyNheQ8jn15E7Ps9XvvIVtSnNjBkzVBpoV1dX0RrCk08+WZUPv0MxHKlkCXzvvfciN81p9DyCENofAUQI7TOtWCOEsCIiFAABMYGEvIdQ3N5GFYQQNoo8zgsCiSDAUlirD+/obPuTWCEsFy0z1+z96le/CtJK+cX1PT09wRo9vZun3tAlzi6jphCaKaO8Wym/G5HTPcO7nXJqKKeDdnZ2Fr2Y3txlVKeLcnopIoS2p3fy6oMQNmBMIIQNgI5TOkugghA62+9qOwYhrJYYyoMACDSIQKJTRhvEBKc1CGQqQtjQBGnL087jkcMnIAAhxGQAAXsEIIQylhBCGSeUAgEQaDiBxG8q03BCGW8AhDClEwBCWDxwEMKUTmQ0O5EEIISyYYEQyjihFAiAQEMJpOK1Ew0lhJNn58X0K9fvOKljbNN73b0Dw4Z9Xmc7XX1h5fcsv/D6Adr0Th/d/KmpNK6tqeL04fLPbN5fVG7GlNF0y2XTyh675S999NRr+2jpJSfS9A79LuhplWi8AAAXDklEQVTiQyCEEMKKExAFQGCEBCCEMnAQQhknlAIBEGg4gVS8mL7hlDLcgExGCCXCZWNOsBC+tLWHli2eqsSut/843ffrXdTemisrheHjotoCIYQQ2pijqAMEoghACGXzAkIo44RSIAACiSfg0qqqxMNOYgMhhB2jaOe+o7Tu+Q9pzOgm6jl0TAncE3/YSzt2H1FjNmZ0Tn335539KkJ47cIT6KENe5TY6TKXzZtIi+ZOKBrjKLEzZXRsa5MSRB21nDyuha46fxL94qXddOhInjiaeN3CKcPKcIRy/JhmrCE0aCNlNIm3F7QprQQghLKRgxDKOKEUCIBA4glACBM/RLVtIISwIIRrn91Fs6e3qdRRFkSWtLNmtAdRvfmz2tVIhIWQ0z8feXkPvdt9dFgqaZQQavm84twOJaD8OX1aayCl/P3+vmNBZJHFMKrMOZ1jIYQQwtreHVB7ZglACGVDDyGUcUIpEACBxBOAECZ+iGrbQAihIYQXzRlfFOVb88wHRRHAsBCeMnmUEshSawsrCeHZpw0JJwtoS5NHX7hgcpEQmqmmZhkIYfGFgQhhbW8UqD1bBCCEsvGGEMo4oRQIgEDiCUAIEz9EtW0ghDBCCDmt89FXumnuqWPo8nM7VMpmVIRwJEJopoxyCipvOsPpph+Z3qbSVsMRwlJlIIQQwtreGlB7lglACGWjDyGUcUIpEACBxBOAECZ+iGrbQAhhCSHUu3zu6RlQcnjpWYPrA82U0WqFMLypjBlZfG37QXruTweGRQj1ukVeN2iWgRBCCGt7a0DtWSYAIZSNPoRQxgmlQAAEkk2go6Nj3759+yYmu5VoXS0JdHR07M/MWjT954/wLqO8ro/XEOqUUS1unKLJG720NHs0dUILTZnQUrUQlnvthD4vrxOc1jGKBo75KhI5sb1ZSej0SaPoygWTVNvCZS752MTMjJvkAkDKqIQSyoCAjMCe/3o+nfCYrCxKgUCNCfzGI1pc43OgehDIOgGfiPBcme1Z4GdmArgUD8drJxAhzPZ9C72vJQFECGV0ESGUcYpTyifih5TMPKfEYYVjQSAGAQhhDHiOHAohTONAQgghhGmct2hzOghACGXjBCGUcYpTCkIYhx6OBQExAQihGJWzBSGEaRxaCCGEMI3zFm1OBwEIoWycIIQyTnFKQQjj0MOxICAmACEUo3K2YHaEsE5DiIuqTqDN02ANYQOg45TOEoAQyoYWQijjFKcUhDAOPRwLAmICeHYVo3K2IITQ8tDiorIMVFIdhFBCCWVAQEYAQijjBCGUcYpTCkIYhx6OBQExATy7ilE5WxBCaHlocVFZBiqpDkIooYQyICAjACGUcYIQyjjFKQUhjEMPx4KAmACeXcWonC0IIbQ8tLioLAOVVAchlFBCGRCQEYAQyjhBCGWc4pSCEMahh2NBQEwAz65iVM4WhBBaHlpcVJaBSqqDEEoooQwIyAhACGWcIIQyTnFKQQjj0MOxICAmgGdXMSpnC0IILQ8tLirLQCXVQQgllFAGBGQEIIQyThBCGac4pSCEcejhWBAQE8CzqxiVswUhhJaHFheVZaCS6iCEEkooAwIyAhBCGScIoYxTnFIQwjj0cCwIiAng2VWMytmCEELLQ4uLyjJQSXUQQgkllAEBGQEIoYwThFDGKU4pCGEcejgWBMQE8OwqRuVsQQih5aHFRWUZqKQ6CKGEEsqAgIwAhFDGCUIo4xSnFIQwDj0cCwJiAnh2FaNytiCE0PLQ4qKyDFRSHQuhpBzKgAAIyAic+SXyZCWzWwpCWPuxhxDWnjHOAAJE6hkK9/xsTwUIoeXxx0VlGaikOkQIJZRQBgRkBBAhlHGCEMo4xSkFIYxDD8eCgJgAnl3FqJwtCCG0PLS4qCwDlVQHIZRQQhkQkBGAEMo4QQhlnOKUghDGoYdjQUBMAM+uYlTOFoQQWh5aXFSWgUqqgxBKKKEMCMgIQAhlnCCEMk5xSkEI49DDsSAgJoBnVzEqZwtCCC0PLS4qy0Al1UEIJZRQBgRkBCCEMk4QQhmnOKUghHHo4VgQEBPAs6sYlbMFIYSWhxYXlWWgkuoghBJKKAMCMgIQQhknCKGMU5xSEMI49HAsCIgJ4NlVjMrZghBCy0OLi8oyUEl1EEIJJZQBARkBCKGME4RQxilOKQhhHHo4FgTEBPDsKkblbEEIoeWhxUVlGaikOgihhBLKgICMAIRQxglCKOMUpxSEMA49HAsCYgINfXZduX7HSXk//ywRnVFocT+Rf8uqpTPXr3igay3laNaqJZ0Xi3sTKqjr98m/b/XSmXdF1XP7+q75nk+PEfnLfaLTPPJuznm5xSuXzHh/pOdN2XEQQssD1tCLynJfUlMdhDA1Q4WGpoAAhFA2SBBCGac4pSCEcejhWBAQE2jos6uSPo8u0AJW+PeVvkeXr17SuUncixIFJUK4Yt32JUTevUT+rSyicc+ZwuMhhJYHraEXleW+pKa6JArhzoPNtG7LeLri9D46+8Qjw1j2HsnRfZsnUPehpmE/mzf1CF19Zm9F/pXOwT9fu3k8HRrIDavrsll9tGhGf8VzcIEtH46mp95up6Vn99D0scfohR1t9Mw77cGxMyYM0C3zD5Sta82mCdTRmhf1S1e09o8TaP60w+qfj24dSwN5j8a05GnZvKF27O5rrqpOUYczXghCKJsAEEIZpzilIIRx6OFYEBATKPvsWpCl5Tkvd1U4YhZE9zzaTT6dR+SvJvK+4ZN/N0fjdITPJ7ptMAJHe4joXCIaigKu73qRWxoVBYw4/vdE9Ld8vE/+Ko+8fyCiyeTTT/0c3eP59HT43DnKXccRSB0hXMHn82lhgU53Ppdfmsvn/rUQoXyLyHuYyL+GBZXLGNFL1eac1/Sc+m6wz6oen/xvl4o+ikehsQUhhJb5QwgtA5VUl0QhZIl6fNtYumr2wUghNPsVFi5Jn6stwxK36YNWunneARo3Ol/V4XzsS39tUyLGH5bMi07tV0KppXP2pIGSYqbl95Rxx8Tyxudk2bt8Vp8SZxZDPh+LJX+0gGppjJLuqjqJwgEBCKFsMmRZCH3f5991+IyAgOd53ggOwyEgUEsCVoSQha6QejlMygpC+DT59MSqGzqXKSkrSKA+RokdUbcZGQwJ4dPk0VY+T0Hq5nBZL09f5wijl8vd5ufz68oJIXnekx75Z6xaMvPnZuTQI/qLjhCaKaN5yj8YtHPd9m+xgAYC6dFu1ZZQhLOWA1XDuiGEluFCCC0DlVRXSQhZuF7c0UY3nt0TKUP8cx2BmjzmuJKm13aNpt+916ZOP7H1uBIQlpEdB1rUdzqKF4708fHXntlLD70xTkX/dH1Pv9NOm3eNVseGI2phIdSRP46G9RzJKRF7Ylt7cG4dJeO6OAq56LRD9Nt326i9JR+UCUcAw0Jo9tmMupl95HZeObsviDLyvz9+8uGyohtV78t/bVN9b8n59IU5B2lb96iAheZjSiozffD1cercHJE0P+FII5+PRXfZOeUjlJJ5hDKDBCCEspkAIZRxQqliAhBCzIgEEoh8dr19UIDuDLW3SNiCCKFPr7DoVRLCsKyFo4IFubqJiN7iCF0+n7+L1xBqoYw6vtDOmyVCqKN4ZpSQo3tRQtjs0fXHfPqZjizqdYY+0Z0e0ddI93mQU9rXHEIILV+YEELLQCXVxRHCcPRKC8eU9mP0XNcYJTAcfXrkjXG073BOiaGZqskyxZ/TOwaKvufvdIRw/+FcEJ3j782IF/87Sgg5Cqejbnw+lsuzTjxCur0cMfvIpIFhQsjt47a+29tcFA00hfDgQK4onVX3jWVPp4Zq2eSUV26/jhCyoHF5Lbdmems4hVXXe93cXtVnjhBeeGp/cO7OCQPDWGgeYYHXotnS5Acpo1yWz/nQ6+Po2rm9w+RRMndQZjgBCKFsVkAIZZwqldrylz569JVuGjg+FHScPK6Fbv7UVBrXNjylvlx9L7x+gF7a2kPLFk+l6R2jIos+8vIe2td3jG65bFqlpg37+ZpnPqCO9ma6cM54Wvf8h3TFuR109mlD6fOSCiGEEkooY5OAT3S6R/R2mTrjRwgtCSG30dzghXzvszaFsCB+a8inX+RyuW/pVFIIIUEIbV50Ko2YCOkglqFWqq6UEIbXunE9ZjRMC0XUWj8zTZIlyIyc6fZERQl1FMwUQjMipo81o4SlhFCnZepjzDZwBDAshDolMyo91Pyu60BLEBHVdTOXa+YeVJFIlk+zfWEW+hhzjSK3Z2Jrvmy9un26H1HRQa6bz/dW96jIdYnhtrAg379lPF08o79iam6leYSfDxKAEMpmAoRQxqlSKRbCx1/dS1edP0nJVW//cbrv17to/qx2WjR3MEVc+pEIIUsdf6oVQt2uUyaPoqsvPEHapGHlIIQjRocDR0DAJ/obIvoPIuKNUjiyFSWG1oTQjBhq4eK1dqUifHp9H5fR0cKCEP7M9+h6lQ4qjBDqiB5H7sxzm2sIC+L3fd+jz3u+P4fIWzO4FnEEKaOIEI5gRmbnEAhhA8Y6ToSw1MYsUUIYtSmKlk5T0DiqFhZCHV2MwlNJCHV0bO6Uo0Vr6uIIoblJTLhNYdHjn5sRwnD5qAijmeoZtYbQTLUNb6JTTgjDazMhhPYvOAihjGmWhfD5/9zv/27b4MZXE9ubVdTs3e6jKqp38PDxIHq27f1+9X3/0eN06EieZkwZPUzEKgkhS94zm/cHg3LZvIlKFM3Ioo4ovrb9YBAhfHlrD73+10P0hQsmB1E8sy6u5yPT22jts7tU21qavKCsWbf+nvuyuatPlbv0rAnE/ecIYak+aoHs7h0gbt/A8bwqf07nWPzRWHaJoZQlAj7R80R0YaG6/xMhhiN+dg2njPI5jLRP3rnuTfKor2zK5+ArH54urCHkKoa9dkKSMhqkmHrEKafBuU0hbPKa1hqbxLxFRIfIpy16QxpewyjeVAZCaGmGulnNiC8qN3HUp1dxhDAqZZRbfcbko8PSJLftbRm2sQqX1Zu18LpDnWZqCiGnXOrvdZqkucGKRAi1wO051KSicJd2HhpxhJBTRs2UVJ1ieuHJ/fTqzla11pI/OrXVFMI/720pSqXln/Hx/OF00Kh69ZpKnTJqpnhG7T5qrvnkes0IYDgdFimj9q8xCKGMaUEI/Y0bvTtkR7hTioXwuT8dCASK0zBLCeG2nf0qhXNPz0BRJFDTiEoZndfZHkThWOJ0pFCne163cIqKIuponU7lnDKhRQnhWTPa6e0PDkemneoIoa5DRyL5PJve6VPHPLhht5JcjgRGndNMGWUhjOqjFkWuj0VV84IQunMdpKUnhSjhvxPReCLirbubicgUQzy7pmUwa9dOpIxaZouLyjJQSXWVhLBSHWZETKeUsviEo2JRm8qYx04be0y9GkGv72M5amvx1Vq+ajeVMXfyNKNpnGbJaalT248H6/H0pjLSlFHewKXUpjLm+kCdNqrLTh93TKVxmmWYbTj9NeoVEcxuZ2+zWpPJgqxfW1FqUxlTAku1lc9dLppYadzx82gCEELZzMh6hNBcq1dOCKNE0Vx3VypCaKZmmpE9jjJeuWBS5Bo+Xc6M9oVHUwsh16Gjg7qMPm5/3zEVlTTrMVNGw0IY7iML7G/f7A2Edee+o0Pt7Rz7i8LyEtlEy1Yp7F4bPd42uHy2IIT6DCyGvEve3R7R/8Byp2xdaBG9hRBangIQQstAJdXFFULJOVCmvgT0aycqvY8Rr52wPy4QQhlTCOHQ5i02hZDph6Ny/B1H2p5+bZ/aEKacEEojhKXqMEef28Fpopzyee3CE+ihDXuU5MUUwmsFMwxppaUhgU00m0pc/i0khAeJaDsR/aM3uMaw0vGCaYsiKSYAIbQ8eBBCy0Al1UEIJZTSVUayNhDRwdqMKYRQxhVCOCSE5mYuf97ZH6RHmmmT5tpCaYTw8nM7gg1mzp05Vv13e2uOolJGedTOOKktWEP4xB/2Bmmf5oiGU0a5Pt5gxuwDH8t1caRPp5JWI4Tm2kKkjMquJ5SqHQGf6O+J6F+IiN+lxSK4jZf6eUS/LJwVz661w5+WmiGElkcKF5VloJLqIIQSSigDAjICEEIZJwjhkBBySqROvzQ3UJEKYbnXTugoHadv8iYwHx4YCDav0eccMzqn1imyjOpU1lJrFnV95TaVMftjpo2yTO7cezRyU5nwhjqdJ7YqgcWmMrLrCaVqR8An2kdE/CLkrSER1CfFs2vt8KelZgih5ZHCRWUZaKG6bxARpzsMbmsX+kAIawMdtWaTAIRQNu5ZFkLf922saZKBdqCUGX08adJopOY5MKZp6YI/uE5wMxEtNyKC4ebj2TUtA1q7dkIILbPFRWUZaKE63j6Y31D8AyL6XlgMIYS1gY5as0kAQigbdwihjFNWS+lIpO6/fl0G3kOY1RmR6H7j2TXRw1OXxkEILWPGRWUZaKG6rxHRXUSUK+zOdo8phhDC2kBHrdkkACGUjTuEUMYJpYoJQAgxIxJIAM+uCRyUOjcJQmgZOC4qy0CN6rqJaFLh30dNMXzjJ9Qz56pXa3dm1AwCGSLwvTt+SQ///p8y9269aofY8+hS36fnNm70VlZ7LMqDAAiAQIII4Nk1QYPRoKZACC2Df5aIPmm5TlRXmsAAET32xk/oGgghpgkI2CHwvTv+gx7+/cokSk7i1l5BBu3MOdQCAiDQUAIQwobiT8TJIYSJGAY0QkJgDxFNRoRQggplQGDkBJAyOnJ2OBIEQAAEUkgAQpjCQbPcZAihZaCorjYEeA3hnYWNZfjGhTWEteGMWkGAIISYBCAAAiCQKQIQwkwNd2RnIYSYA6kggF1GUzFMaKQLBCCELowi+gACIAACYgIQQjEqZwtCCJ0dWrc6hvcQujWe6E2CCUAIEzw4aBoIgAAI2CcAIbTPNG01QgjTNmJo73ACeO0EZgUI2CMAIbTHEjWBAAiAQAoIQAhTMEg1biKEsMaAUX0dCEAI6wAZp8gMAQhhZoYaHQUBEAABJgAhxDyAEGIOpJ8AhDD9Y4geJIcAhDA5Y4GWgAAIgEAdCEAI6wA54aeAECZ8gNA8AQEIoQASioCAkACEUAgKxUAABEDADQIQQjfGMU4vIIRx6OHYZBCAECZjHNAKNwhACN0YR/QCBEAABIQEIIRCUA4XgxA6PLiZ6RqEMDNDjY7WgQCEsA6QcQoQAAEQSA6BZ4nok8lpDlrSAAK/8RpwUpwSBKwSgBBaxYnKMk4AQpjxCYDugwAIgAAIZI4AhDBzQ+5ehyGE7o0petQ4AhDCxrHHmUEABEAABECgEQQghI2gjnNaJQAhtIoTlWWcAIQw4xMA3QcBEAABEMgcAQhh5obcvQ5DCN0bU/SocQQghI1jjzODAAiAAAiAQCMIQAgbQR3ntEoAQmgVJyrLOAEIYcYnALoPAiAAAiCQOQIQwswNuXsdhhC6N6boUeMIQAgbxx5nBgEQAAEQAIFGEIAQNoI6zmmVAITQKk5UlnECEMKMTwB0HwRAAARAIHMEIISZG3L3OgwhdG9M0aPGEYAQNo49zgwCIAACIAACjSAAIWwEdZzTKgEIoVWcqCzjBCCEGZ8A6D4IgAAIgEDmCEAIMzfk7nUYQujemKJHjSMAIWwce5wZBEAABEAABBpBAELYCOo4p1UCEEKrOFFZxglACDM+AdB9EAABEACBzBGAEGZuyN3rMITQvTFFjxpHAELYOPY4MwiAAAiAAAg0ggCEsBHUcU6rBFgIrVaIykAg4wTO/BLhd0PG5wC6DwIgAAIgkB0C+KWfnbFGT0EABEAABEAABEAABEAABECgiACEEBMCBEAABEAABEAABEAABEAABDJKAEKY0YFHt0EABEAABEAABEAABEAABEDg/wMtmA2f/+o5/wAAAABJRU5ErkJggg==;" parent="thYoycdbc5IxVnPoqDkT-1" vertex="1">
          <mxGeometry x="233" y="191" width="900" height="538" as="geometry" />
        </mxCell>
      </root>
    </mxGraphModel>
  </diagram>
</mxfile>
